<?xml version="1.0" encoding="utf-8"?>
<!-- Generator: Adobe Illustrator 26.3.1, SVG Export Plug-In . SVG Version: 6.00 Build 0)  -->
<svg version="1.1" id="Слой_1" xmlns="http://www.w3.org/2000/svg" xmlns:xlink="http://www.w3.org/1999/xlink" x="0px" y="0px"
	 viewBox="0 0 408 360" style="enable-background:new 0 0 408 360;" xml:space="preserve">
<style type="text/css">
	.st0{fill:#E3B170;}
	.st1{fill:#8C5633;}
	.st2{fill:#D39B6B;}
	.st3{fill:#4A8D95;}
	.st4{fill:#A54124;}
	.st5{fill:#BE6E30;}
	.st6{fill:#5FC0C9;}
	.st7{fill:#3F2E22;}
	.st8{fill:#49494B;}
	.st9{fill:#CD8949;}
	.st10{fill:#DFC6A0;}
	.st11{fill:#E45B2C;}
	.st12{fill:#CE5029;}
	.st13{fill:#BC4926;}
	.st14{fill:#5A5C5D;}
	.st15{fill:#FFFFFF;}
</style>
<path class="st0" d="M328.8,300.3c4.8,0.2,9.7,0.3,14.5,0.5c8.3,0.4,16.7,0.7,25,1.2c4.5,0.2,9.1,0.6,13.6,1.4
	c0.7,0.1,1.9,0.1,2,0.9c0,0.6-1.1,0.6-1.8,0.8c-3.2,0.6-6.5,1-9.7,1.1c-8.2,0.6-16.4,1-24.6,1.3l-13.5,0.5
	c-6.1,0.2-12.2,0.3-18.3,0.5c-3.5,0.1-6.9,0.1-10.4,0.2c-10.4,0.3-20.9,0.4-31.3,0.5c-6.4,0.1-12.7,0.1-19.1,0.2
	c-20.4,0.3-40.8,0.2-61.1,0.2c-8.5,0-17,0.1-25.4-0.1s-16.9,0-25.4-0.2c-5.8-0.1-11.5,0-17.2-0.2c-4.5-0.2-9-0.1-13.4-0.2
	c-7-0.2-14-0.3-21-0.5c-5.3-0.1-10.6-0.3-15.9-0.5c-5.8-0.2-11.6-0.4-17.3-0.7c-6.8-0.3-13.7-0.7-20.5-1.4c-1.8-0.1-3.6-0.4-5.4-0.9
	c-0.3-0.1-0.8-0.1-0.8-0.6s0.5-0.5,0.8-0.6c3-0.7,6.1-1.1,9.2-1.2c7.6-0.6,15.1-1,22.7-1.3c4.1-0.1,8.1-0.3,12.2-0.5
	c9.1-0.3,18.2-0.5,27.3-0.8c4.1-0.1,8.2-0.1,12.3-0.2c0.2,0.7-0.2,1-0.7,1.3c-1.9,1-3.8,2-5.7,3c-1.4,0.8-3.2,0.7-4.5-0.3
	c-0.3-0.2-0.6-0.3-1-0.4c-1.7-0.7-3.6-0.2-4.8,1.2c-0.2,0.3-0.6,0.6-0.4,0.9s0.6,0.1,0.9,0.1h19.9c0.4,0,0.9,0.2,0.9-0.5
	c0.1-1.2,0.2-2.4-1.2-3.1l0.2-2.4c4.5,0,8.9,0,13.4-0.1c0.9,0,0.9-0.6,0.9-1.1c0.2-4.4-0.1-8.7-0.8-13.1c-0.6-2.8-1.5-5.5-2.7-8.1
	c-1.9-5.1-2.2-10.6-2.7-16c0.3-0.9,1-0.5,1.5-0.3c3.4,1,7,1.5,10.6,1.5c1.7,0,3.3-0.6,5,0c0,0.9-0.1,1.7-0.2,2.6
	c-0.1,2.8-0.3,5.6-0.7,8.4c-0.4,3.4-1,6.8-1.9,10.2c-1.2,4.8-2.4,9.6-3.6,14.4c-0.3,1.3-0.2,1.4,1.1,1.4c5.2-0.1,10.5-0.2,15.7-0.2
	c11.9-0.1,23.7-0.2,35.6-0.2c-0.3,1.6,1.1,2.4,1.7,3.5c-1.8,0.7-3.4,1.5-4,3.5c-1,0-0.8,0.7-0.8,1.3c0,0.7,0.5,0.7,1,0.7
	c4.3,0,8.6,0,12.9,0c0.4,0,1.1,0.3,1.2-0.4s0.1-1.3-0.7-1.6c0.2-1.1-0.2-2.2-1.1-2.8c-0.6-0.3-1.3-0.6-1.9-0.9v-3.4h8.7
	c-0.5,0.7-0.9,1.5-1.1,2.3c-0.8,0.2-0.7,0.9-0.6,1.5c0.2,1.4,0.6,2.8,0.8,4.2c0.1,0.8,0.6,1,1.4,1c4.2,0,8.4,0,12.6,0
	c1.5,0,1.6-0.1,1-1.4c-0.1-0.2-0.2-0.3-0.3-0.5c0.1-0.5,0-1-0.3-1.5c-0.5-1.3-1.6-2.3-3-2.6c-1.8-0.5-3.6-1-4.7-2.8v-0.3l24.1,0.2
	h5.3H262c-1.6,1.1-2.4,3-2.1,4.9c0,0.2,0,0.4-0.1,0.6c-0.3,1.5-0.3,1.5,1.2,1.5h9c2.3,0,2.3,0,1.9-2.2c0.2-1.9-0.9-3.7-2.7-4.5h1.3
	l16.6,0.2c0.4,0.7,0.5,1.7,1.3,2.2c0.8,1.4,2.3,2.3,3.9,2.3c1.9,0.2,3.8,0.1,5.7,0.1c0,0.1,0,0.2,0,0.4c-0.4,1.5-0.4,1.5,1,1.5h13.6
	c1.9,0,1.9,0,1.7-1.8c2.6,0,5.3-0.1,7.9,0C325,304.4,327.7,302.8,328.8,300.3z M133.7,303.1c-0.2,0.5-0.3,0.9-0.5,1.2
	c-0.4,0.9-0.2,1.2,0.8,1.2c4.3-0.1,8.5,0,12.8,0c0.8,0,1.1-0.2,0.8-1c-0.7-2.4-3-3.4-5.7-2.4c-1.6,0.6-3.1,1.2-4.7,1.7
	C136,304.4,134.6,304.1,133.7,303.1z"/>
<path class="st1" d="M144.9,262.4c-1.7-0.5-3.3,0-5,0c-3.6,0-7.1-0.5-10.6-1.5c-0.5-0.1-1.2-0.6-1.5,0.3c-0.3-0.1-0.6-0.3-0.9,0
	c-5.8,1.8-11.9,2-17.8,0.8c-1.5-0.4-2.9-0.8-4.4-1.2c-0.3-0.1-0.7-0.2-1-0.1c-1.8,0.7-3.5,0.1-5.2-0.5c-0.5-0.2-0.6-0.5-0.5-1
	c0.4-3.8,0.7-7.7,1.1-11.6c0.1-0.7-0.3-1.8-0.1-2.1c0.6-1,0.3-2,0.6-3c0.1-0.2,0.1-0.5,0.1-0.7c-0.1-1.7,0.3-3,2.2-3.4
	c0.5-0.1,0.7-0.4,0.7-0.9c0-5.6,0-11.2,0-16.8c0-5.1,0-10.1,0-15.1c4.7,1.2,9.5,1.9,14.3,2c4.8,0.1,9.6,0,14.3-0.4
	c0,4.2,0,8.4,0,12.6c-0.1,1.9-0.1,1.9,1.7,1.9c0.5,0,1,0,1.4,0c0.9,0.1,1.3-0.2,1-1.1c0-4.6,0-9.1,0-13.7c0.4-0.2,0.8-0.2,1.2-0.2
	c3.6-0.5,7.2-0.9,10.7-1.7c0.8,0.2,0.3,0.9,0.5,1.4c0,0.2,0,0.3,0,0.5c0,10.1,0,20.3,0,30.4c0,1,0.5,0.9,1.1,0.8
	c1.3-0.4,1.7,0.2,1.8,1.4c0.4,3,0.9,5.9,1.3,8.8c0.4,3.2,0.9,6.4,1.1,9.6c0.2,2.3-0.1,2.8-2.2,3.7
	C148.9,262.2,146.9,262.5,144.9,262.4z"/>
<path class="st2" d="M259.3,91.6c-0.5-0.9-0.5-1.3,0.8-1.2c0.9,0.1,1.9,0,3.1,0c-0.7-0.7-1.5-1.4-2.4-1.9c-0.5-0.3-0.9-0.9-0.8-1.6
	c0-0.6,0.1-1.2,0.6-1.5s0.9,0.4,1.2,0.7c1.2,1.2,2.5,2.3,3.9,3.3c0.1,0.1,0.1,0.2,0.2,0s-0.1-0.1-0.1-0.2c-0.2-1-0.3-2-0.3-3.1
	c0-0.4,0.1-0.7,0.2-1.1c0.1-0.3,0.3-0.7,0.7-0.7s0.4,0.5,0.5,0.8c0.5,2,1.3,3.9,2.3,5.6c0.1-0.7,0.4-1.3,0.7-1.9
	c0.2-0.3,0.5-0.6,0.9-0.5s0.3,0.5,0.3,0.8c0,0.9,0.1,1.8,0.2,2.7c0.2,2.7,1.4,5.1,3.4,6.9c2.6,2.4,4.6,5.4,7,8
	c3.8,4,7.3,8.2,10.7,12.6c1.2,1.6,2.3,3.3,3.2,5.1c0.5,0.8,0.6,1.7,0.5,2.5c-3.2,1-6.5,1.3-9.8,1c0.1-0.3,0-0.6-0.1-0.8
	c-1.3-2.5-2.4-5.2-3.3-7.9c-1.7-5.5-4-10.9-6.8-16c-0.3-0.8-1-1.3-1.8-1.4l0,0c0-0.2-0.2-0.2-0.3-0.2c-2.5-1.8-5-0.9-7.7,0.1
	c1.6,0.1,3.1,0.3,4.6,0.4c0.7,0,1.3,0.5,1.4,1.2c0.3,1.2,0.6,2.5,1,3.7c0.3,0.9,0.2,1.2-0.9,1.1c-1.4-0.2-2.9,0-4.2,0.7
	c1.7,0.3,3.1,0.6,4.6,0.7c0.7,0,1.3,0.5,1.4,1.2c0,0,0,0,0,0c0.4,2.2,0.9,4.3,1.1,6.5c0.7,4.1,0.8,8.2,0.3,12.3
	c-1.1,1.1-2.1,2.3-3.3,3.4c-1.9,1.9-4.1,3.4-6.6,4.4c-0.3,0.1-0.9,0-0.8,0.6c0,0.5,0.4,0.9,0.9,0.9c-0.1,0.9,0.2,1.9,0.9,2.6
	c0.5,0.9,1.6,1.3,1.8,2.5c0.1,1,0,2.1-0.2,3.1c-0.2,2.5-1,4.8-2.2,7c-1,1.6-2.3,1.9-4,1.1c-0.9-0.5-1.7-1.1-2.4-1.8
	c-1.7-1.6-2.9-3.6-4.4-5.3c0.1-0.7,0.2-1.4,0.3-2c-0.2-0.6-1-0.7-1.3-1.2c0.3-1.4,0.4-2.7,0.3-4.1c0-1.4,0-2.7,0-4.1
	c0-0.8-0.5-1-1.1-1.2c-0.4-0.2-0.8-0.3-1.2-0.5c-0.3-2.8-0.7-5.6-1-8.4c-0.4-4.4-0.7-8.9-1.1-13.3c-0.1-0.8,0.2-1.2,1-1.4
	c2.6-0.7,5.1-1.4,7.6-2.1c-3.1-0.8-5.9,0.2-8.7,1.5c0-0.6,0-1.1,0-1.7c-0.2-1.5,0.6-3,2-3.6c1.9-1.1,3.8-2,5.9-2.7
	c1.4-0.7,2.8-1.1,4.3-1.3c0.9,0,1.1-0.4,1-1.2c1.4,0,2.8-0.6,3.8-1.7c0.3-0.1,0.5-0.1,0.8-0.2c1.2-0.1,1.5-0.7,1.1-1.7
	c0-0.8-0.3-1.6-0.7-2.3c0.1-0.6-0.2-1.1-0.6-1.5C265,92.1,262.4,90.8,259.3,91.6z M256.1,115.9c-1.8,0.1-3.4,1-4.3,2.6
	c-0.3,0.4-0.9,1-0.5,1.3s0.8-0.4,1.2-0.6c0.3-0.2,0.5-0.4,0.7-0.6c1.4-1.3,3.5-1.4,4.9-0.2c0.6,0.4,1.2,0.8,1.8,1.2
	c0.3,0.2,0.5,0.6,0.9,0.2s0-0.6-0.1-0.9C259.8,117.1,258,116,256.1,115.9z M274.4,117.1c-0.2-1.2-1.3-2.1-2.5-2.2
	c-2.2,0.1-4.1,1.4-5,3.3c-0.1,0.2-0.3,0.5,0,0.8s0.5,0,0.8-0.1c0.8-0.4,1.5-0.9,2.2-1.4c1.7-1.2,2-1.2,3.8-0.2
	c0.2,0.1,0.4,0.2,0.5,0.1S274.4,117.2,274.4,117.1L274.4,117.1z M263.5,129.8c1.2,0,2.5-0.3,3.6-0.9c0.3-0.2,0.9-0.4,0.7-0.8
	s-0.7-0.2-1-0.1c-2.2,0.6-4.6,0.5-6.8-0.3c-0.5-0.2-1.1-0.2-1.3-1c-0.2-0.5-0.8-0.1-1.1,0.2s-0.9,0.7-0.5,1.3c0.1,0.2,0.3,0.1,0.4,0
	c0.4-0.8,0.9-0.3,1.2,0C260.1,129.1,261.8,129.7,263.5,129.8z M264.4,115.7c0.1-0.4,0.1-0.7-0.2-0.7s-0.4,0.2-0.5,0.5
	c-1.2,2.7,0,6,2.7,7.2c0.3,0.1,0.6,0.2,0.9,0.3c0.6,0.2,0.7,0.4,0.5,0.9c-0.3,0.8-1,1.5-1.9,1.7c-0.3,0.1-0.7,0.2-0.5,0.7
	s0.5,0.3,0.8,0.2c1-0.3,1.8-1,2.2-1.9c0.6-1.2,0.3-2.1-1.1-2.4c-1.6-0.2-2.8-1.5-3.1-3.1C264,118,264.1,116.8,264.4,115.7
	L264.4,115.7z"/>
<path class="st3" d="M281.5,205.5l3,12.6c0.5,2.3,1.1,4.6,1.6,6.9c-4.4,1.3-8.8,1-13.3,0.9c-3.9-0.1-7.5-1.9-11.4-1.6
	c-0.7,0-1.3-0.1-2-0.3c-6-1.2-11.7-3.6-16.8-6.9c-0.3-3.7-0.5-7.3-0.8-11c-0.1-1.3,0.2-2.6,0.8-3.8c0.2-0.4,0.6-0.8,0.4-1.3l0,0
	c0.2,0.1,0.3-0.1,0.4-0.3c1.2-1.5,2.6-2.9,4.2-4.1c0.6,2.3,1.3,4.7,1.9,7c0.2,0.9,0.5,1,1.3,0.7c2.6-0.9,5-2.4,6.9-4.4l0.6,0.3
	c1.8,0.9,1.8,0.9,2.7-0.8c3.6,1.6,7.3,3,11.1,4.2c0,1.4,0,2.8,0,4.2c0,0.6,0.1,0.8,0.7,0.6C275.8,207.9,278.8,206.9,281.5,205.5z"/>
<path class="st4" d="M241.1,151.2c1.6-1.4,3.5-2.6,5.5-3.4c0.8,0.3,1.5,0.7,2.1,1.3c1.3,0.8,2.6,2,4,0.2c0,0,0.1,0,0.1,0
	c0.8,1,0.7,2.4,1.4,3.4c2.3,4.2,4,8.8,5.2,13.4c0.8,3.8,1.5,7.7,1.9,11.5c0.8,6.4,1.5,12.8,0.3,19.2c-1,0-2,0-3,0.1
	c-3.1,0.2-6.1,0-9.1-0.6c-0.6-0.1-1.2-0.3-1.5-0.9c-0.8-1.8-1.3-3.7-1.7-5.7c2.3-7.4,3.8-14.9,1.9-22.7c-0.6,0.4-1.2,0.9-1.5,1.6
	c-1.8,2.8-3.5,5.6-5,8.6c-0.2,0.4-0.3,0.9-0.9,1.1c-1.1,0-2.1,0-3.2,0.1c-2.1,0.1-4.1,0.3-6.1,0.8c-0.6,0-1.2,0-0.7-0.9
	c0.1-0.3,0.2-0.5,0.2-0.8c1.4-4.3,2.9-8.7,4.5-12.9l0.4-1.6c0.6-1.3,1.1-2.6,1.5-4L241.1,151.2z"/>
<path class="st4" d="M281.5,205.5c-2.7,1.4-5.7,2.4-8.7,3c-0.6,0.1-0.8,0-0.7-0.6c0-1.4,0-2.8,0-4.2c0-0.8,0.2-1.5,0.1-2.3
	c0-10.8,0.3-21.5-0.1-32.3c-0.3-7.9-1.5-15.7-2.5-23.5c0-0.7-0.5-1.3-1.2-1.4c-0.2-1.1-1.3-1.6-1.8-2.5c-0.6-0.7-0.9-1.6-0.9-2.6
	c1,0.1,2.1,0.3,3.1,0.6c0.7,0.3,1.6-0.2,2,0.7c0,0-0.1,0.1-0.1,0.1c-0.9,2.5-0.1,3.5,2.4,3.3c0.6,0,0.8-0.1,0.4-0.8
	c-0.5-0.8-1.5-1.3-1.8-2.3c4-3.8,8-7.6,11.9-11.5c0.6-0.8,1.5-1.1,2.5-1c3.3,0.3,6.6,0,9.8-1c0.2-0.1,0.5-0.3,0.6-0.1s0,0.4-0.1,0.6
	c-1,1.7-2,3.5-3,5.2c-4.3,6.7-8.4,13.4-12.9,20c-2.4,3.5-2.3,6.9-0.5,10.4c0.7,1.4,0.8,3,0.2,4.4c-1,2.3-1.7,4.7-2.2,7.2
	c-0.5,3.4,0.2,6.8,0.6,10.1c0.9,6.4,2.2,12.6,3.4,18.9C282.1,204.5,281.9,205.1,281.5,205.5z"/>
<path class="st2" d="M285.9,230l2.4,10.1c0.1,0.2,0.1,0.4,0.2,0.5c0.2,2,0.6,3.9,1.2,5.8l0.6,3.8c0.1,0.5,0.1,0.9,0.2,1.4
	c0.5,2.6,0.3,5.3,0.8,8c1.4,6.7,3.3,13.3,5.5,19.8c1.2,3.5,2.2,7.1,3.7,10.5l0.5,1.7c-1.2,0.5-2.5,0.7-3.8,0.7
	c-0.6-1-1.1-1.9-1.8-2.9c-1.9-3-3.8-6-5.8-8.9L289,279c-0.5-0.8-1-1.6-1.5-2.4c-1.5-2.4-3-4.8-4.5-7.2c-2.2-3.5-4.5-6.9-5.1-11.1
	c-0.5-2.7-1.4-5.3-2.7-7.6c-2.3-4.6-4.4-9.3-6.2-14.1c-1-2.4-1.9-4.9-2.5-7.5c0.3-0.1,0.7,0,1,0.2c2.9,1,5.9,1.7,9,1.9
	C279.6,231.4,282.8,231,285.9,230z"/>
<path class="st5" d="M179.4,72.7c-1.1-1.2-0.3-2.6-0.4-3.9c0.2-0.3,0.1-0.6,0.2-0.9c0.2-0.8-0.1-1.9,0.5-2.5
	c1.3-1.4,2.9-2.4,4.7-3.1c-0.4,3.1-0.7,6.2-1,9.3l-1.1,9.7c-0.1,0.5,0.1,1,0.6,1.2c2.3,1.7,4.8,3,7.6,3.7c1,0.3,1.3-0.2,1.4-1
	c0.3-1.8,0.5-3.5,0.8-5.3c0.1-0.4,0.1-1,0.6-0.9s0.2,0.7,0.2,1c-0.3,1.7-0.6,3.4-0.8,5c-0.1,0.6-0.1,1.2,0.7,1.2
	c1.8,0.3,3.6,0.3,5.3,0c0.6-0.1,1.1-0.4,0.8-1.1c-0.2-0.8-0.2-1.6-0.1-2.4c0-0.2,0-0.4,0.3-0.4s0.4,0.2,0.4,0.4c0,0.2,0,0.4,0.1,0.6
	c0.1,0.9-0.1,2.1,0.4,2.7c0.6,0.8,1.6-0.4,2.5-0.2c0,0.5,0.2,1.1-0.6,1.2l-11.5,2c-0.2,0-0.6,0.2-0.7-0.2c0-0.2,0.3-0.6-0.2-0.7
	s-0.4,0.3-0.6,0.6c-0.2,0.4-0.5,0.8-0.7,1.2c-0.1,0.2-0.3,0.4,0,0.7s0.4,0,0.6-0.2c0.4-0.6,0.7-0.3,1,0c3.7,2.9,9,2.3,11.9-1.4
	c0.2-0.2,0.3-0.4,0.5-0.6c0.5-0.8,0.8-1.2,1.6-0.3c-0.2-1-0.4-1.8-1.4-2.1c0.1-0.2,0.3-0.4,0.5-0.5c1.4-0.6,2.7-1.3,3.8-2.2
	c1.2-0.6,1.8-1.9,1.7-3.2c-0.2-3.3-0.2-6.7-0.3-10c0-0.3-0.1-0.6-0.1-0.8c-0.4-2.9-0.9-5.7-1.1-8.6c1,0.2,1.9,0.6,2.7,1.3
	c1.4,1,2.2,2.6,3.1,4c1.5,1.8,0.6,3.2-0.8,4.6c-0.5,0.5-1,1.1-0.7,1.9c-0.5,0.9-0.2,2-0.3,2.9c-0.4,2.6-0.5,5.1-0.6,7.7
	c-0.2,3.5,0,6.9,0.1,10.4c0.1,2.9-0.1,5.8,0.3,8.7c0.1,0.7-0.3,1-0.9,1.2c-2.6,1.2-5.3,2-8.1,2.3c-0.2,0-0.5,0-0.6,0.2
	c-3.5,0.3-7,0.3-10.5,0c-3.3-0.3-6.6-0.9-9.9-1.8c-1.9-0.6-2-0.8-2.1-2.8c-0.1-4.8,0.1-9.5,0.6-14.2c0.1-0.6,0-1.2,0.1-1.8
	c0.2-0.5,0.3-1,0.2-1.5c0-3,0-6,0-8.9C180.2,74,180,73.2,179.4,72.7z"/>
<path class="st6" d="M131.1,207.1c-4.8,0.4-9.5,0.5-14.3,0.4c-4.8-0.1-9.6-0.8-14.3-2c0.4-5.9,0.2-11.8,0.2-17.7
	c0.4-0.3,0.2-0.6,0.2-1l0.2-6.4c0.9,2.1,2.9,2.9,4.9,3.8c4.7,2,9.5,3.4,14.1,5.7c7.8,4,16,6.9,24.9,7l0.5,7.9
	c-3.5,0.8-7.1,1.2-10.7,1.7c-0.4,0-0.8,0.1-1.2,0.2C133.9,206.7,132.5,206.9,131.1,207.1z"/>
<path class="st7" d="M263.4,101c0.1,0.8-0.1,1.1-1,1.2c-1.5,0.2-3,0.7-4.3,1.3c-2,0.7-4,1.6-5.9,2.7c-1.4,0.6-2.2,2.1-2,3.6
	c0,0.6,0,1.1,0,1.7c2.8-1.3,5.6-2.3,8.7-1.5c-2.5,0.7-5.1,1.4-7.6,2.1c-0.8,0.2-1.1,0.5-1,1.4c0.4,4.4,0.7,8.9,1.1,13.3
	c0.3,2.8,0.6,5.6,1,8.4c0.1,0.6,0.1,1.2,0.2,2c-2.8-1.7-3.7-4.9-6.3-6.9c-0.1,1.7-0.2,3.1-0.3,4.6c-0.1,1,0.4,2.3-0.4,3.1
	c-1.1,1.1-2.6,1.7-4.1,1.9c-1.4,0.3-2.9,0.2-4.3-0.1c-2.5-0.6-3.2-1.7-2.9-4.3c0.4-3.8,2-7.1,3.9-10.3l0.6-1c-1.9-1.2-3.7-2.6-5.4-4
	c-1-0.7-1.4-2-0.9-3.2c1.6-5,3.3-9.8,6.6-13.9c1-1.5,2.3-2.7,3.9-3.7c0.1,0.9,0,1.9-0.3,2.8c-0.9,2-1.6,4-2.4,6
	c-0.2,0.4-0.2,0.8,0.2,0.9s0.5-0.2,0.6-0.6s0.2-0.4,0.3-0.7l2.4-6c1.1,1.3,2.6,2.3,4.2,2.8c4.1,1.4,7.2-0.2,8.4-4.3
	c0.4-1.3,0.5-2.7,0.2-4c-0.3-1.2,0.6-1.2,1.2-1.4s1.4-0.4,1.6,0.8c0.2,1.1,0.7,2.2,1.3,3.2C261,100.1,262.1,100.9,263.4,101z"/>
<path class="st5" d="M102.8,186.9c0,0.3,0.2,0.7-0.2,1c-2.7-0.7-5.2-1.8-7.5-3.3c-5-3.2-7.9-8.6-7.9-14.5
	c-0.2-6.9,1.9-13.6,5.9-19.2c1.2-1.5,2.6-2.9,4.1-4.2l4.1-2.2c1.2,0.1,2.4-0.9,3.5,0.2l1.9,1.4c1.5,1,2.3,2.7,1.9,4.5
	c-0.1,1,0,2.1,0,3.1c-0.1,5,0,5.2-5.1,7.5c-0.1,0-0.2,0.1-0.3,0.1l-0.6-2.6c0.4-0.4,0.9-0.7,1.5-0.9c0.2-0.1,0.5-0.1,0.4-0.4
	c-0.1-0.2-0.3-0.3-0.5-0.3c0,0,0,0,0,0c-0.6,0.3-1.1,0.6-1.7,0.9c-0.8-0.9-1.7-0.5-2.5-0.1c-1,0.3-1.7,1.3-1.7,2.3
	c0.1,1.1,0.2,2.3,0.5,3.4c0.7,3.9,1.4,7.9,2.1,11.8s1.3,7.8,2,11.7C102.6,187.4,102.7,186.8,102.8,186.9z"/>
<path class="st8" d="M111.8,131c-3.3-3.5-4.5-7.9-5.3-12.4c-0.5-3.3-0.7-6.6-0.5-9.9c1.8,0.4,3.6,0.6,5.4,0.7
	c-1.2-0.9-0.2-1.8-0.1-2.7c0.2-1,0.5-2,0.8-3c-3.1-0.3-3.2-0.5-2.8-3c0.1-0.7,0.2-1-0.6-0.9c-0.2,0-0.6,0-0.6-0.3s0.3-0.4,0.6-0.4
	c1.3-0.2,2.7-0.2,4-0.1c1.4,0.3,1.4,0.2,1,1.6c-0.7,2.2-1.2,4.5-2,6.6c-0.3,1,0.1,1.3,0.9,1.3c1.5,0.1,3.1,0.2,4.7,0.3
	c0.3,0,0.9-0.2,0.9,0.3s-0.6,0.4-0.9,0.4c-0.7,0-1.4,0-2.1,0c4.8,0.4,9.6,0.4,14.3,0c0.9-0.1,1.9-0.1,2.4-1.2
	c1.1-2.9,2.3-5.7,3.4-8.5h0.6c0.1,0,0.2,0,0.2,0c0,0.3,0.2,0.4,0.5,0.4l0,0l0.2,0.2l0,0l0.5,0.2c0.5,0.3,1.3,0.3,1.2,1.2
	c-0.5,1.7-1.1,3.5-1.6,5.2c-0.6,1.8-1.1,3.6-1.4,5.5l0,0c-0.5,0.2-0.6,0.8-0.9,1.2c-3.4,5.2-7.3,10-11.7,14.4
	c-0.9,0.7-1.7,1.5-2.5,2.4l-0.2,0.3l0,0c-1.1,0.1-1.8,1.1-2.9,1.2c-0.5-0.1-0.9,0.1-1.2,0.5h-1.8L111.8,131z M111.8,114.3
	c0,0.9-0.2,2,1,2.4c2.6,0.9,5.3,1.2,8,0.7c2.8-0.4,4-2.7,5.5-4.6c0.2-0.2,0.5-0.5,0.3-0.8s-0.7-0.1-1,0c-3.9,1.2-7.8,0.9-11.8,0.5
	C112,112.4,111.8,112.3,111.8,114.3L111.8,114.3z M128.1,112.1c-0.2-0.6-0.6-1.2-1.2-1.5c-0.2-0.1-0.5,0.1-0.4,0.2
	c0.3,0.7,0.7,1.3,1.3,1.8C128,112.7,128.1,112.5,128.1,112.1L128.1,112.1z M112,109.4c0.6,0.3,1.4,0.3,2,0H112z"/>
<path class="st9" d="M109.1,261.9c5.9,1.3,12,1,17.8-0.8c0.6,2.8,0.9,5.6,0.9,8.4c-0.1,2.9-0.5,5.7-2.4,8c-1.4,1.7-2.4,3.7-3.1,5.8
	c-1.6,5.3-2.4,10.7-2.6,16.2l-0.2,2.4c-0.2,0.4-0.6,0.5-0.9,0.7c-2.8,1.2-5.9,1.7-8.9,1.3c1.9-1,3.8-2,5.7-3
	c0.6-0.3,0.9-0.6,0.7-1.3c0.3-5.2-0.6-10.3-1.5-15.4C113.2,276.8,111.1,269.4,109.1,261.9z"/>
<path class="st9" d="M135.6,99.8c-1.1,2.8-2.4,5.7-3.4,8.5c-0.4,1.2-1.4,1.2-2.4,1.2c-4.8,0.4-9.6,0.4-14.3,0c0.7,0,1.4,0,2.1,0
	c0.3,0,1,0.2,0.9-0.4s-0.6-0.3-0.9-0.3c-1.6-0.1-3.1-0.2-4.7-0.3c-0.8-0.1-1.2-0.3-0.9-1.3c0.7-2.2,1.3-4.4,2-6.6
	c0.4-1.4,0.4-1.3-1-1.6c-1.3-0.1-2.7-0.1-4,0.1c-0.3,0-0.6,0-0.6,0.4s0.3,0.3,0.6,0.3c0.8-0.1,0.8,0.3,0.6,0.9
	c-0.5,2.5-0.3,2.7,2.8,3c-0.3,1-0.6,2-0.8,3c-0.1,0.9-1.2,1.8,0.1,2.7c-1.8-0.1-3.6-0.3-5.4-0.7c0.2-4.1,0.8-8.1,1.9-12
	c1.7-1,3.7-1.5,5.7-1.4c0.7,0,0.9-0.3,1-0.9c0-0.4,0.1-0.8,0.1-1.2c2.3-0.7,4.7-0.7,6.9,0c-0.2,0.6-0.4,1.2-0.7,1.8s-0.2,1,0.6,1
	c3.1,0.1,6.1,0.9,8.8,2.3c0.6,0.3,0.9,0.1,0.9-0.6C132.8,98,134.1,99.1,135.6,99.8z M122.8,99.6c-0.7,0-1.3,0-2,0.2
	c-0.2,0.1-0.4,0.2-0.4,0.4s0.1,0.3,0.3,0.3c1.4-0.2,0.9,0.7,1,1.4c0.2,3,0.7,3.3,3.1,2.7c0.6-0.1,1.2-0.2,1.7-0.4
	c1.2-0.4,2.6-0.5,2.5-2.5c-0.1-0.7-0.2-1-0.7-1.1C126.5,99.9,124.7,99.5,122.8,99.6z"/>
<path class="st1" d="M213.2,65.7c-0.9-1.4-1.7-3-3.1-4c-0.8-0.6-1.7-1-2.7-1.3c-4.7-0.6-9.5-0.7-14.2-0.3c-0.8,0.1-0.6,0.3-0.3,0.8
	c0.9,1.3,0.7,3.1-0.6,4.1c-0.2,0.1-0.3,0.2-0.5,0.3c-0.9,0.5-1.8,1-2.8,1.4c-1.5,0.7-3.2,0-3.8-1.4c-0.2-0.4-0.3-0.9-0.3-1.4
	c0.1-0.7,0.3-1.4,0.7-2.1c-0.4-0.1-0.9,0.1-1.2,0.4c-1.8,0.7-3.4,1.7-4.7,3.1c-0.6,0.6-0.3,1.7-0.5,2.5c-0.1,0.3,0.1,0.6-0.2,0.9
	c-1.9,0-3.7-0.2-5.6-0.7c-0.7-0.2-1.3-0.5-1.9-1c-0.8-0.7-0.8-1.8-0.2-2.6c0.1-0.1,0.1-0.1,0.2-0.2c0.9-0.9,2-1.6,3.2-2
	c3.1-1.4,6.3-2.6,9.5-3.5c0.2-0.1,0.4-0.2,0.6-0.3s0.5-0.1,0.7-0.1c4.3-1.2,8.6-2.3,12.9-3.1c2.8-0.5,5.7-0.9,8.5-1.3
	c1.6,0,3.3,0,4.9,0c2.2-0.1,4.2,1.2,5,3.2c1,1.9,0.7,4.2-0.6,5.9C215.5,64.1,214.4,65.1,213.2,65.7z"/>
<path class="st9" d="M120.6,130.7c0.8-0.9,1.6-1.6,2.5-2.4c4.3-4.4,8.3-9.3,11.7-14.4c0.3-0.4,0.4-1,0.9-1.2
	c-0.7,5.1-1.5,10.2-2.2,15.4c-0.3,0.5-0.1,1.1-0.3,1.7c-0.6,2.3,0,3.2,2.5,4.1c-0.2,1-0.4,2.1-0.6,3.1c-1,0.3-2,0.8-2.9,1.3
	c-3.4,1.6-7.2,1.8-10.8,0.6c-1.9-0.7-3.6-1.8-4.4-3.9c0-0.6,0.2-1.1,0.5-1.6c1.1-0.6,2.3-1.1,2.9-2.4l0,0L120.6,130.7z"/>
<path class="st6" d="M285.9,230c-3,0.9-6.2,1.3-9.4,1.1c-3.1-0.2-6.1-0.9-9-1.9c-0.3-0.2-0.7-0.2-1-0.2l0,0c0-0.2-0.1-0.2-0.2-0.2
	l-1.5-0.6c-0.4-0.3-0.9-0.5-1.5-0.4c-5.1,0.7-10.4,0-15.1-2c-0.8-0.4-1.6-0.7-2.4-0.9c-1.1-0.8-2.3-1.5-3.4-2.1
	c-0.3-0.2-0.8-0.4-0.8-0.8c0.3-1.6,0.2-3.4,1-4.9c5.1,3.3,10.8,5.6,16.8,6.9c0.7,0.2,1.3,0.3,2,0.3c3.9-0.2,7.5,1.5,11.4,1.6
	c4.5,0.1,8.9,0.4,13.3-0.9c0.6-0.1,1.1,0.1,1.2,0.8c0,0.2,0.1,0.4,0.2,0.7C288.1,228.8,288.1,228.9,285.9,230z"/>
<path class="st10" d="M113,85.8c1.7-3,3.7-5.8,6-8.3c0.5-0.6,1.2-0.8,1.9-0.8c3.5,0.4,6.9,1.2,10.1,2.6c0.1,0,0.2,0.2,0.2,0.3
	c0.8,5.7,1.1,11.5,0.9,17.3c-2-1.4-4-2.7-5.9-4.1C122.2,89.7,118,87.1,113,85.8z"/>
<path class="st11" d="M204.8,108.7c1.2,1.2,2.3,2.5,3.3,3.8c0.4,0.4,0.7,0.8,1.3,0.7c-0.5,2.8-0.9,5.6-1.4,8.4
	c-0.1-0.2-0.2-0.4-0.2-0.5c-0.2-2-0.3-4-0.2-6.1c0-0.2,0.1-0.5-0.2-0.7s-0.4,0.1-0.6,0.3c-1.3,1-2.6,2-3.8,3.1
	c-0.7,0.6-1.3,1.1-2.2,0.1v5.8h-2.4c-0.2-0.6-0.2-1.2-0.2-1.9c0-2.4,0-4.7,0-7.1c0-0.4,0-1-0.6-1s-0.4,0.6-0.4,1
	c-0.1,1.1,0,2.2,0.2,3.3c-0.8-0.2-1.5-0.7-2,0.1c-0.3,0.4-0.3,0.9,0,1.2c0.6,0.8,1.2,0.4,2,0.1v4.2h-6.7c-0.1-1.3,0-2.6,0.1-3.9
	c0.3-1-0.1-2-1-2.5c-1.4-0.9-2.8-2-4.1-3c1-1.7,2-3.4,3-5.1c0.1-0.2,0.2-0.4,0.5-0.4c0.5,0.5,1.2,0.8,1.9,1c1.8,1.4,3.9,2.1,5.9,3.2
	c0.5,0.3,1.1,0.2,1.6-0.2l3.2-2.1L204.8,108.7z"/>
<path class="st10" d="M207,54c-2.8,0.4-5.7,0.8-8.5,1.3c-4.4,0.8-8.6,1.9-12.9,3.1c-0.2,0.1-0.5,0.1-0.7,0.1c0.5-2.4,1.2-4.7,1.9-7
	c0.2-0.5,0.5-0.8,0.9-1c3.3-2.4,7.1-3.8,11.2-4.1c2.5-0.1,5,0.4,7.1,1.7c0.8,0.4,0.6,1.2,0.7,1.8C206.9,51.2,206.9,52.6,207,54z"/>
<path class="st1" d="M179,114.9c0-0.4,0.2-0.6,0.6-0.7c1.4-0.1,2.8-0.3,4.2-0.5c0.5-0.1,0.9-0.1,1,0.5c0.3,3.1,0.8,6.2,1.2,9.3
	s0.8,6.1,1.2,9.1l0.6,4.3c-1.2,0.1-2.5,0-3.7-0.2c-0.8-0.2-1.6,0.2-2,0.9c-0.6,0.9-1.4,1.8-2.1,2.7l-0.5-7.7c0.1-3-0.3-6.1-0.3-9.1
	C179.5,120.6,179.2,117.7,179,114.9z"/>
<path class="st7" d="M113,85.8c5,1.3,9.3,3.9,13.3,7c1.9,1.4,3.9,2.7,5.9,4.1c1.2,1,2.7,1.7,3.9,2.9h-0.5c-1.4-0.8-2.7-1.8-4.4-2.2
	c-0.1-0.4-0.6-0.5-0.9-0.7c-2.8-1.5-5.7-2.8-8.7-3.8c-2.3-0.7-4.7-0.7-6.9,0c-2.7-1-5.7,0.4-6.8,3.1l-3.3-2.2
	c-1.9-1.1-2.6-3.5-1.5-5.4c0,0,0-0.1,0.1-0.1c0.8-1.5,2.3-2.6,4-2.8C109.1,85.3,111.1,85.4,113,85.8z"/>
<path class="st1" d="M136,99.8c-1.1-1.1-2.6-1.8-3.9-2.9c0.2-5.8-0.2-11.5-0.9-17.3c3.7,1.5,6.8,4.1,8.8,7.6
	c0.6,1.2,0.8,2.6,0.7,3.9c0,3.6-0.4,7.2-1.3,10.8l-0.7,0.1c0-0.9-0.8-0.9-1.2-1.2c-0.1-0.2-0.3-0.2-0.5-0.2l0,0l-0.2-0.2l0,0
	c-0.1-0.2-0.2-0.4-0.5-0.4C136.2,99.8,136.1,99.8,136,99.8z"/>
<path class="st1" d="M207.9,121.6c0.5-2.8,0.9-5.6,1.4-8.4c0.1-0.6,0.1-1,0.9-0.8c1.3,0.3,2.6,0.4,3.9,0.6c0.4,0.1,0.9,0.2,0.8,0.8
	c-0.4,3.2-0.6,6.5-0.7,9.7c-0.2,3-0.5,6.1-0.7,9.1c-0.1,1.1-0.2,2.2-0.3,3.3c-0.4-0.5-0.8-1-1.2-1.5c-0.5-0.9-1.6-1.3-2.6-1.1
	c-1.2,0.2-2.4,0.2-3.7,0.2c0-0.3,0-0.7,0.2-0.9c0.5-3,1.2-6.1,1.5-9.1C207.8,122.9,207.9,122.3,207.9,121.6z"/>
<path class="st8" d="M328.8,300.3c-1.2,2.6-3.9,4.2-6.8,3.9c-2.6-0.1-5.2,0-7.9,0L314,304v-1.1c2.7,0,5.4,0.1,8.1,0
	c3.8-0.1,6-2.2,5.7-5.8c-0.4-4,0-8-0.4-11.9c-0.3-2.6-0.1-5.3-0.2-8c-0.2-5.3-0.2-10.6-0.5-15.9c-0.1-2.5-0.1-5.1-0.2-7.6
	c-0.1-3.5-0.3-7-0.3-10.5c0-1.1-0.2-2.1-0.7-3.1c0.5-0.4-0.1-1.2,0.5-1.7c1.1,1.1,1.7,2.6,1.7,4.1c0.2,6.3,0.3,12.7,0.5,19
	c0.3,8,0.5,16.1,0.7,24.2c0.1,3.9,0.3,7.7,0.4,11.6C329.3,298.3,329.2,299.3,328.8,300.3z"/>
<path class="st12" d="M164,136.6c0.6-1.4,1.3-2.7,2.1-4c2.2,0.5,4.4,0.1,6.6,0.2c0,3.8,0,7.7,0,11.5c-2.9-0.2-5.7,0.3-8.6,0.2l0,0
	L164,136.6z"/>
<path class="st12" d="M227.3,132.9c0.6,0.9,1.1,1.8,1.5,2.8v7.3l0,0c-2.2,0-4.5,0-6.7,0.2c-1-0.4-1.8-1-2.6-1.6v-8.7L227.3,132.9z"
	/>
<path class="st3" d="M133.3,129.8c0.1-0.6,0-1.1,0.3-1.7c5.9,0.1,11.8,0.5,17.4,2.4c1.1,0.4,2.1,0.9,3.2,1.2
	c2.1,0.7,3.1,2.2,3.4,4.4c0.5,3,0.8,6.1,0.9,9.1c-0.1,0.5,0,1,0.2,1.5c-0.1,0.2-0.1,0.4-0.2,0.6c-0.2-0.1-0.4-0.3-0.5-0.5
	c-1.5-1.9-3.1-3.6-4.8-5.3c-0.5-0.5-1.2-0.6-1.4-1.4c0.1-0.4,0.4-0.7,0.8-0.9c0.8-0.6,1.5-1.3,2.1-2.1c1.2-1.6,0.9-2.9-0.9-3.8
	c-0.3-0.2-0.7-0.3-1-0.4c-3.5-1.1-7.2-1.8-10.9-2.2C139.1,130.4,136.2,130.1,133.3,129.8z"/>
<path class="st10" d="M263.4,101c-1.3-0.1-2.4-0.9-2.9-2c-0.6-1-1.1-2.1-1.3-3.2c-0.2-1.1-0.9-1-1.6-0.8s-1.5,0.2-1.2,1.4
	c0.3,1.3,0.2,2.7-0.2,4c-1.2,4.2-4.3,5.7-8.4,4.3c-1.6-0.5-3.1-1.5-4.2-2.8l-2.4,6c-0.1,0.2-0.2,0.4-0.3,0.7s-0.3,0.7-0.6,0.6
	s-0.4-0.5-0.2-0.9c0.8-2,1.5-4,2.4-6c0.3-0.9,0.5-1.8,0.3-2.8c-0.1-0.9,0.3-1.7,0.9-2.2c2.6-2.4,5.9-3.8,9.4-4
	c0.6-0.1,1.1,0.1,1.6,0.5c1.3,1.7,2.4,0,3.7-0.1c0.3,0,0.2-0.4,0.2-0.7c0-0.6,0.3-1.1,0.8-1.4c3.1-0.8,5.7,0.5,8.2,2
	c0.5,0.4,0.7,0.9,0.6,1.5c0,0.6,0,1.2,0,1.8c-0.4,0.8-0.8,1.6-1.2,2.4C266,100.3,264.7,100.9,263.4,101z M264.1,94.7
	c0.2-1.1-0.6-2.1-1.7-2.3c-0.1,0-0.2,0-0.2,0c-2.3-0.4-2.8,0-2.3,2.3c0.2,1.6,0.8,3.1,1.8,4.4c0.6,0.8,1.4,1.3,2.4,0.7
	c1.7-0.4,2.5-1.7,3-3.2c0.2-0.3,0-0.7-0.3-0.9c0,0,0,0-0.1,0C265.9,95.4,265.1,94.7,264.1,94.7L264.1,94.7z M253.1,103.4
	L253.1,103.4c0.3,0,0.6-0.2,0.8-0.5c1.3-1.6,1.9-3.6,1.7-5.6c0.1-0.9-0.3-1.7-1-2.2c-0.4-1-1.2-1-2-0.8c-2.5,0.4-4.9,1.3-7,2.7
	c-0.4,0.2-0.8,0.5-0.9,1c-1.1,1-1.4,2-0.5,3.2c1.3,1.8,3.3,3,5.5,3.1c1.2,0.4,2.5,0.1,3.3-0.8C253,103.4,253,103.4,253.1,103.4
	L253.1,103.4z"/>
<path class="st3" d="M111.8,131l2.7,1.7c-0.6,0.6-1.1,1.4-1.3,2.2c-0.2,0.1-0.3,0.2-0.4,0.4c-2.2,3.5-4.6,6.9-6,10.8l-1.9-1.4
	c0.1-0.2,0.1-0.4,0.2-0.6l3.8-7.6c0.1-0.3,0.6-0.6-0.1-0.8s-3.4,0.9-3.7,1.4c-1.2,2.4-2.5,4.8-3.7,7.2l-4.1,2.2
	c2.1-2.7,3.9-5.6,5.2-8.7c1.3-3,4.1-5.1,7.4-5.5C110.7,132.2,111.5,132,111.8,131z"/>
<path class="st2" d="M201.8,110.6l-3.2,2.1c-0.4,0.4-1.1,0.5-1.6,0.2c-1.9-1.2-4.1-1.9-5.9-3.2c0-0.6,0-1.1,0-1.7v-2.1
	c3.5,0.3,7,0.3,10.5,0l0.1,1.8L201.8,110.6z"/>
<path class="st13" d="M227.3,132.9h-7.9c0-0.1,0-0.1,0-0.2v-9.1c0.1-1.3-0.2-2.6,0.2-3.9C222.4,124,224.9,128.4,227.3,132.9z"/>
<path class="st10" d="M302,235.7c0-1.3,0.1-2.7,0.2-4c0.3-1.9,1.9-3.4,3.9-3.4c1.3,0,2.6,0,4,0c2.1,0,3.9,1.7,3.9,3.9
	c0,1.3,0,2.6,0,3.9l-2.6-0.2c0-1.1,0-2.3,0-3.5c0.1-0.8-0.4-1.5-1.2-1.6c-0.1,0-0.2,0-0.3,0h-3.4c-1.3,0-1.8,0.5-1.8,1.8
	c0,1,0,2,0,3L302,235.7z"/>
<path class="st11" d="M179,114.9c0.1,2.9,0.4,5.8,0.4,8.7h-6.7c-0.1-0.5,0.2-1.2-0.5-1.5c1.2-2.2,2.6-4.3,4.1-6.2
	C177,114.8,178.2,115.3,179,114.9z"/>
<path class="st13" d="M172.2,122.1c0.7,0.3,0.5,0.9,0.5,1.5c0,3,0,6.1,0,9.1c0,0.1,0,0.1,0,0.2c-2.2-0.1-4.4,0.3-6.6-0.2
	C168,129,169.9,125.5,172.2,122.1z"/>
<path class="st11" d="M219.7,119.7c-0.5,1.3-0.1,2.6-0.2,3.9h-5.3c0.1-3.2,0.3-6.5,0.7-9.7c1.1,0,2.2,0.7,2.5,1.8
	C218.1,117,219,118.3,219.7,119.7z"/>
<path class="st12" d="M186.1,123.5c-0.4-3.1-1-6.2-1.2-9.3h0.7c1.4,1,2.7,2.1,4.1,3c0.9,0.5,1.3,1.5,1,2.5c-0.1,1.3-0.2,2.6-0.1,3.9
	L186.1,123.5L186.1,123.5z"/>
<path class="st12" d="M233.1,143c1.4,2.3,2.8,4.7,3.9,7.2l-2.9,0.2c-1.8-0.9-3.6-1.9-5.3-3.1V143L233.1,143z"/>
<path class="st9" d="M138.7,102l0.7-0.1c4.1,1.8,3.2,5.6,1.2,7.7c-1.3,1.4-3,2.5-4.9,3.1c0.3-1.9,0.7-3.7,1.4-5.5
	C137.6,105.4,138.1,103.7,138.7,102z"/>
<path class="st13" d="M252.8,149.2c0,0-0.1,0-0.1,0c-1.4,1.8-2.7,0.7-4-0.2c-0.6-0.5-1.4-1-2.1-1.3c-0.1-0.2-0.4-0.5-0.1-0.8
	c1-1.3,2-2.7,3-4l4.7,2.2c0.3,0.5,1.1,0.6,1.3,1.2C254.4,147.1,253.5,148.1,252.8,149.2z"/>
<path class="st2" d="M179.4,72.7c0.5,0.5,0.8,1.3,0.7,2c0,3,0,6,0,8.9c0.1,0.5,0,1-0.2,1.5c-1.9-0.6-3-2.5-2.6-4.4
	c0.2-1.8,0.2-3.6,0-5.4c-0.2-1,0.4-2.1,1.5-2.3C179,72.9,179.2,72.8,179.4,72.7z"/>
<path class="st12" d="M158.6,147.3c0.1-0.2,0.1-0.4,0.2-0.6l1-1.9c1.4-0.2,2.9-0.3,4.3-0.2l0,0c0,2.3,0,4.6,0,6.9h-2.6L158.6,147.3z
	"/>
<path class="st2" d="M210.9,82.8c0-2.6,0.2-5.2,0.6-7.7c0.1-1-0.2-2,0.3-2.9c2.8,0.4,2.5-0.2,2.7,2.8c0,0.6,0,1.1,0,1.7
	C214.9,79.7,213.2,81.5,210.9,82.8z"/>
<path class="st14" d="M302,235.7h2.6c2.2,0.2,4.5,0.3,6.7,0.2l2.6,0.2l4.5,0.1c0,0.5,0,0.9,0,1.4c-1.2,0-2.3-0.2-3.5-0.2
	c-5.8-0.1-11.5-0.3-17.3-0.5c0-0.5,0-0.9,0-1.4L302,235.7z"/>
<path class="st13" d="M234.1,150.4l2.9-0.2c1.4,0.2,2.8,0.5,4.1,1l-3.3,7.6C236.9,155.8,235.7,153,234.1,150.4z"/>
<path class="st10" d="M297.7,235.6c0,0.5,0,0.9,0,1.4v0.9c0,0.9,0,1.8,0,2.6c0.1,1-0.6,1.8-1.6,1.9c0,0-0.1,0-0.1,0
	c-1,0-1.7-0.9-1.7-1.8c0,0,0,0,0-0.1c0-0.9,0-1.8,0-2.6V237v-1.4c0.4-0.7,1-1.4,1.9-1.2C297,234.4,297.6,234.9,297.7,235.6z
	 M296,241.3c0.4,0,0.6-0.2,0.6-0.6s-0.3-0.6-0.7-0.6c-0.3,0-0.6,0.2-0.6,0.5c0,0,0,0.1,0,0.1C295.3,241.1,295.6,241.3,296,241.3z"/>
<path class="st10" d="M318.5,237.7c0-0.5,0-0.9,0-1.4c1.4-1.7,2.7-1.6,3.4,0.2l0.1,1.5v0.7c0,0.9,0,1.8-0.1,2.7
	c0,1.3-0.6,1.9-1.6,1.9c-0.9,0-1.7-0.7-1.7-1.6c0-0.1,0-0.1,0-0.2c0-0.9,0-1.8,0-2.7L318.5,237.7z M320.3,240.8
	c-0.4,0.1-0.7,0.3-0.6,0.7c0,0.4,0.3,0.7,0.7,0.7c0,0,0,0,0,0c0.3,0,0.6-0.2,0.6-0.5c0,0,0,0,0-0.1c0.1-0.3-0.2-0.7-0.5-0.7
	C320.3,240.8,320.3,240.8,320.3,240.8L320.3,240.8z"/>
<path class="st11" d="M164.1,144.6c-1.4-0.1-2.9,0-4.3,0.2c1.3-2.8,2.7-5.6,4.3-8.3C164,139.3,164.1,141.9,164.1,144.6z"/>
<path class="st11" d="M233.1,143h-4.2v-7.3C230.4,138,231.7,140.5,233.1,143z"/>
<path class="st14" d="M294.3,235.6v1.4c-2.2,0.2-4,1.9-4.3,4c-0.4,1.8,0,3.6-0.2,5.3c-0.5-1.9-0.9-3.8-1.2-5.8
	C289.2,237.8,291.5,235.8,294.3,235.6z"/>
<path class="st8" d="M107.9,96.2c1-2.7,4-4.1,6.8-3.1c0,0.4,0,0.8-0.1,1.2c-0.1,0.6-0.3,0.9-1,0.9c-2-0.1-3.9,0.4-5.6,1.4
	L107.9,96.2z"/>
<path class="st1" d="M254.1,145.1l-4.7-2.2c1.6-0.8,3.3-1.4,5.1-1.9C254.6,142.4,254.4,143.7,254.1,145.1z"/>
<path class="st14" d="M322,237.9l-0.1-1.5c1.5,0.1,3,0.8,4,1.9c-0.5,0.5,0.1,1.2-0.5,1.7C324.6,238.9,323.6,237.9,322,237.9z"/>
<path class="st13" d="M201.8,110.6v-3c1.1,0.2,2.1,0.5,3.1,1.1L201.8,110.6z"/>
<path class="st13" d="M191.2,107.9c0,0.6,0,1.1,0,1.7c-0.7-0.2-1.4-0.5-1.9-1L191.2,107.9z"/>
<path class="st10" d="M190.9,298.9c0.5-5.5-1-10.8-2-16.1c-1.5-7.9-3-15.7-4.2-23.6c-0.9-5.8-1.8-11.6-2.3-17.5
	c-0.4-4.5-0.7-9.1-1-13.6c-0.5-7.2-0.9-14.4-1.2-21.6c-0.2-3.8-0.5-7.6-0.4-11.4l2.4,0.5c1.6,0.7,3.4,0.9,5.1,1.6
	c-0.6,0-1.3,0-1.9-0.1c-1.3-0.3-2.6-0.6-4-0.8c-0.3-0.1-0.9-0.2-1,0.3s0.5,0.4,0.8,0.5c1.5,0.3,3,0.6,4.4,0.9l9.6,1.8
	c0.4,0.1,0.9,0.1,0.9,0.8c0,1.4,0.1,2.7,0.2,4.1c0.2,2.3,0.2,4.5,0.5,6.8c0.6,4.3,1.2,8.6,1.9,13c0.1,0.5,0.1,1.3,0.6,1.2
	s0.2-0.9,0.2-1.4c0,0,0-0.1,0-0.1c-0.5-3.2-1.1-6.5-1.6-9.7c-0.2-0.5,0.1-1,0.5-1.2c0.1,0,0.2-0.1,0.3-0.1c2.3-0.5,2.4-1,2.7-3.4
	c0.4-3.3,0.6-6.7,0.5-10c-0.1-0.5,0.2-1,0.8-1.1c2.2-0.8,4.5-1.6,6.7-2.5c0.6-0.2,0.7,0,0.7,0.5c0.2,1.9,0.6,3.7,1.4,5.4
	c0.6,1.6,1.8,2.9,3.4,3.5c0.2,0.1,0.5,0.3,0.6-0.1c0.1-0.2,0.1-0.5-0.1-0.6c0,0-0.1-0.1-0.2-0.1c-0.5-0.2-1-0.5-1.4-0.9
	c-2.2-2.1-2.5-5-3-7.8c-0.1-0.4,0.2-0.6,0.6-0.8c1.8-0.6,3.5-1.3,5.3-1.9c0,2.4,0,4.8,0.1,7.2c0.2,4,0.1,8.1,0.3,12.1
	c0.2,4.4,0,8.9,0.2,13.3c0.4,9.2,0.2,18.4,0.1,27.6c-0.1,4.6-0.6,9.2-1.1,13.8c-0.4,3.8-0.7,7.5-1,11.3c-0.4,4.5-1,9-1.4,13.5
	c-0.3,2.2-0.5,4.4-0.6,6.5v0.3c-0.2,0.5-0.5,0.8-1,0.9c-2.3,0.5-3,0.2-3.7-1.9c-0.2-2.1-0.5-4.2-0.9-6.2c-0.5-4.2-1-8.3-1.6-12.4
	c-0.5-4.1-1-8.1-1.6-12.2c-0.6-4.5-1.2-9-1.8-13.5c-0.6-4.5-1.2-8.9-1.8-13.4s-1.2-8.8-1.8-13.1c0-0.2-0.1-0.3-0.3-0.2
	c-0.2,3.3-0.4,6.6-0.6,9.9c-0.3,6.7-0.7,13.4-0.9,20.1c-0.1,4-0.3,8-0.1,12c0.2,7.1,0.1,14.3,0.1,21.5c-0.1,1.5,0.2,3,0.7,4.4
	c0.5,1.3,0.8,2.6,0.7,4c0,1.1,0,2.2,0,3.4c-2.1-0.3-4.3-0.3-6.5,0.2C192,301.3,190.7,300.5,190.9,298.9z M185.4,199.4
	c-0.1-0.4,0.1-0.9-0.3-0.9s-0.5,0.4-0.6,0.7c-0.1,0.3-0.1,0.6-0.2,0.9c-0.3,2.3-1.2,4.6-2.6,6.4c-0.2,0.3-0.7,0.6-0.4,0.9
	s0.7-0.1,1-0.4C184.4,204.9,184.9,202.1,185.4,199.4L185.4,199.4z"/>
<path class="st15" d="M199.1,298.9c0.1-1.4-0.1-2.7-0.7-4c-0.5-1.4-0.8-2.9-0.7-4.4c0-7.1,0.1-14.3-0.1-21.5c-0.1-4,0-8,0.1-12
	c0.2-6.7,0.6-13.4,0.9-20.1c0.2-3.3,0.4-6.6,0.6-9.9c0.2,0,0.3,0.1,0.3,0.2c0.6,4.4,1.2,8.8,1.8,13.1s1.2,8.9,1.8,13.4
	s1.2,9,1.8,13.5c0.5,4.1,1.1,8.1,1.6,12.2s1,8.3,1.6,12.4c0.4,2,0.6,4.1,0.7,6.2l-0.9,0.8L199.1,298.9z"/>
<path class="st1" d="M265.5,292.6c1-0.4,1.2,0.2,1.1,1.1s-0.1,1.8-0.1,2.6c-0.1,2,0.2,2.3,2.5,3.1c1.7,0.8,2.8,2.6,2.7,4.5
	c-0.4,0-0.9,0.1-1.3,0.1h-10.6c-0.3-1.9,0.5-3.8,2.1-4.9c0.6-0.2,0.7-0.6,0.7-1.1c0-1.8-0.3-3.7-0.8-5.5l1.4,0.3
	C264,292.9,264.8,292.9,265.5,292.6z"/>
<path class="st1" d="M207.8,299l0.9-0.8c0.7,2.1,1.4,2.5,3.7,1.9c0.5-0.1,0.8-0.5,1-0.9c1,1.8,2.9,2.2,4.7,2.8
	c1.4,0.3,2.5,1.3,3,2.6c0.2,0.5,0.3,1,0.3,1.5c-4.1,0-8.1,0-12.2,0c-0.7,0.1-1.3-0.3-1.5-1c-0.4-1.2-0.8-2.5-1-3.8
	C206.8,300.4,207.2,299.7,207.8,299z"/>
<path class="st1" d="M192.6,302.4c2.1-0.4,4.3-0.5,6.5-0.2c0.7,0.3,1.3,0.6,1.9,0.9c0.9,0.6,1.4,1.7,1.1,2.8h-13.6
	C189.2,304,190.9,303.1,192.6,302.4z"/>
<path class="st1" d="M109.6,304c3,0.4,6.1-0.1,8.9-1.4c0.3-0.2,0.8-0.3,0.9-0.7c1.4,0.7,1.2,1.9,1.2,3.1c0,0.6-0.6,0.5-0.9,0.5H99.8
	c-0.3,0-0.7,0.2-0.9-0.1s0.2-0.7,0.4-0.9c1.2-1.4,3.1-1.8,4.8-1.2c0.4,0.1,0.7,0.2,1,0.4C106.4,304.7,108.2,304.8,109.6,304z"/>
<path class="st1" d="M133.7,303.1c0.9,0.9,2.4,1.2,3.6,0.7c1.6-0.5,3.1-1.2,4.7-1.7c2.7-1,5,0,5.7,2.4c0.2,0.8,0,1-0.8,1
	c-4.3,0-8.5,0-12.8,0c-1.1,0-1.2-0.3-0.8-1.2C133.4,304,133.5,303.6,133.7,303.1z"/>
<path class="st14" d="M287,299.5c-0.3-3.9,0.1-7.7,0.2-11.6s0.2-7.6,0.3-11.3c0.5,0.8,1,1.6,1.5,2.4c-0.3,1.7-0.5,3.5-0.4,5.3
	c-0.1,4.1-0.3,8.2-0.4,12.3c-0.2,1.6,0.2,3.3,1,4.7c-0.4,0.1-0.6,0.5-1.1,0.5C287.5,301.2,287.4,300.2,287,299.5z"/>
<path class="st10" d="M206.7,301.2c0.2,1.3,0.6,2.6,1,3.8c0.2,0.7,0.8,1.1,1.5,1c4.1,0,8.1,0,12.2,0c0.1,0.1,0.2,0.3,0.3,0.5
	c0.6,1.3,0.5,1.4-1,1.4c-4.2,0-8.4,0-12.6,0c-0.8,0-1.2-0.2-1.4-1c-0.2-1.4-0.6-2.8-0.8-4.2C206,302.2,205.9,301.5,206.7,301.2z"/>
<path class="st10" d="M314,304l0.2,0.2c0.2,1.8,0.2,1.8-1.7,1.8h-13.6c-1.5,0-1.5,0-1-1.5c0-0.1,0-0.2,0-0.4l0.2-0.2L314,304z"/>
<path class="st10" d="M188.6,306h13.6c0.8,0.2,0.8,1,0.7,1.6s-0.8,0.4-1.2,0.4c-4.3,0-8.6,0-12.9,0c-0.5,0-1,0-1-0.7
	C187.8,306.7,187.6,306,188.6,306z"/>
<path class="st10" d="M259.8,304h10.6c0.4,0,0.9-0.1,1.3-0.1c0.4,2.2,0.4,2.2-1.9,2.2h-9c-1.5,0-1.5,0-1.2-1.5
	C259.7,304.4,259.8,304.2,259.8,304z"/>
<path class="st8" d="M298.1,304l-0.2,0.2c-1.9,0-3.8,0-5.7-0.1c-1.6-0.1-3.1-0.9-3.9-2.3c0.5,0,0.7-0.4,1.1-0.5
	c1,0.5,1.7,1.3,2.9,1.5c2,0.2,4.1,0.2,6.1,0.2C298.3,303.3,298.2,303.6,298.1,304z"/>
<path class="st3" d="M156.6,195c-1.8,4.5-4.9,8.4-8.9,11.1c-0.2-0.4,0.3-1.2-0.5-1.4l-0.5-7.9C150.1,196.7,153.5,196.1,156.6,195z"
	/>
<path class="st0" d="M131.1,207.1c1.4-0.2,2.8-0.3,4.2-0.4c0,4.6,0,9.1,0,13.7l-4.1-0.8C131.2,215.5,131.1,211.3,131.1,207.1z"/>
<path class="st15" d="M131.2,219.7l4.1,0.8c0.3,0.9-0.1,1.2-1,1.1c-0.5,0-1,0-1.4,0C131,221.6,131,221.6,131.2,219.7z"/>
<path class="st15" d="M268.4,144.2c0.7,0.1,1.2,0.7,1.2,1.4c1,7.8,2.2,15.6,2.5,23.5c0.4,10.8,0.1,21.5,0.1,32.3
	c0,0.8-0.1,1.5-0.1,2.3c-3.8-1.2-7.5-2.6-11.1-4.2l0.5-2.3c0.2-0.1,0.3-0.3,0.2-0.5c1.1-6.4,0.5-12.8-0.3-19.2
	c-0.4-3.9-1.1-7.7-1.9-11.5c-1.2-4.7-2.9-9.2-5.2-13.4l0.9-4.2c1.5,1.8,2.7,3.8,4.4,5.3c0.7,0.7,1.5,1.3,2.4,1.8
	c1.7,0.9,3,0.5,4-1.1c1.2-2.2,1.9-4.5,2.2-7C268.4,146.4,268.5,145.3,268.4,144.2z"/>
<path class="st7" d="M274.1,102.2c2,6.4,3.9,12.8,5.4,19.3c0.3,1.3,0.2,2.6-0.2,3.8c-0.9,3.1-2.4,6-4.3,8.6l-0.1-0.1
	c0.3-1.3,0.5-2.6,0.6-3.9c0.5-4.1,0.4-8.2-0.3-12.3c-0.3-2.2-0.8-4.3-1.1-6.5c0-0.7-0.6-1.3-1.3-1.3c0,0,0,0,0,0
	c-1.5-0.1-3-0.4-4.6-0.7c1.3-0.7,2.8-0.9,4.2-0.7c1.1,0.1,1.2-0.2,0.9-1.1c-0.4-1.2-0.8-2.4-1-3.7c-0.1-0.7-0.7-1.2-1.4-1.2
	c-1.5-0.1-2.9-0.2-4.6-0.4c2.6-1,5.1-1.9,7.7-0.1L274.1,102.2L274.1,102.2z"/>
<path class="st7" d="M256.1,115.9c2,0.1,3.7,1.3,4.6,3c0.1,0.3,0.4,0.6,0.1,0.9s-0.7,0-0.9-0.2c-0.6-0.4-1.2-0.8-1.8-1.2
	c-1.4-1.2-3.6-1.1-4.9,0.2c-0.2,0.2-0.5,0.4-0.7,0.6c-0.4,0.2-0.7,1.1-1.2,0.6s0.2-0.9,0.5-1.3C252.7,116.9,254.3,115.9,256.1,115.9
	z"/>
<path class="st7" d="M274.4,117.1c0,0,0,0.2-0.1,0.3s-0.4,0-0.5-0.1c-1.8-1.1-2.1-1.1-3.8,0.2c-0.7,0.6-1.4,1.1-2.2,1.4
	c-0.2,0.1-0.5,0.3-0.8,0.1s-0.1-0.5,0-0.8c0.9-2,2.8-3.2,5-3.3C273.2,115.1,274.2,116,274.4,117.1z"/>
<path class="st5" d="M263.5,129.8c-1.7-0.1-3.4-0.6-4.9-1.6c-0.4-0.3-0.8-0.8-1.2,0c-0.1,0.1-0.3,0.2-0.4,0c-0.3-0.6,0.2-1,0.5-1.3
	s1-0.8,1.1-0.2c0.2,0.8,0.8,0.8,1.3,1c2.2,0.9,4.5,1,6.8,0.3c0.4-0.1,0.9-0.3,1,0.1c0.1,0.4-0.4,0.6-0.7,0.8
	C265.9,129.4,264.7,129.8,263.5,129.8z"/>
<path class="st5" d="M264.4,115.7c-0.3,1.1-0.4,2.3-0.1,3.5c0.3,1.6,1.5,2.8,3.1,3.1c1.3,0.3,1.7,1.2,1.1,2.4
	c-0.5,0.9-1.3,1.6-2.2,1.9c-0.3,0.1-0.7,0.2-0.8-0.2s0.2-0.6,0.5-0.7c0.9-0.2,1.6-0.9,1.9-1.7c0.2-0.5,0.1-0.8-0.5-0.9
	c-2.9-0.7-4.7-3.7-4-6.6c0.1-0.3,0.2-0.6,0.3-0.9c0.1-0.3,0.2-0.6,0.5-0.5S264.5,115.4,264.4,115.7z"/>
<path class="st1" d="M255.2,148.4l-0.9,4.2c-0.8-1-0.6-2.4-1.4-3.4c0.7-1.1,1.6-2.1,2.7-2.9C255.4,147,255.3,147.7,255.2,148.4z"/>
<path class="st7" d="M267,99.3c0.4-0.8,0.8-1.6,1.2-2.4l0.7,0.5c0.4,1.1,0.1,1.7-1.1,1.7C267.5,99.2,267.3,99.2,267,99.3z"/>
<path class="st15" d="M268.9,97.4l-0.7-0.5c0-0.6,0-1.2,0-1.8C268.6,95.8,268.8,96.6,268.9,97.4z"/>
<path class="st15" d="M274.1,102.2l-0.3-0.2C274,102,274.1,102,274.1,102.2z"/>
<path class="st15" d="M265.8,89.4c0,0,0.1,0.1,0.1,0.2s-0.1,0-0.2,0L265.8,89.4z"/>
<path class="st2" d="M261.6,196.6c0.1,0.2,0,0.4-0.2,0.5c-0.7,0.8-1.6,1.3-2.6,1.5c-0.7,0.1-1.2,0.6-1.3,1.3c-2,1.9-4.3,3.4-6.9,4.4
	c-0.8,0.3-1.1,0.2-1.3-0.7c-0.6-2.4-1.2-4.7-1.9-7c-0.6-1-1.5-1.9-2.6-2.4c-0.4-0.9-1.3-1.4-2-2c-2.8-2.4-6-4.3-8.5-6.9
	c-1.3-1.3-2.2-2.8-2.7-4.6c-0.2-0.6-0.2-1.3,0-1.9c2-0.5,4-0.7,6.1-0.8c1-0.1,2.1-0.1,3.2-0.1c0.1,0.1,0.1,0.3,0.2,0.4
	c2,1.7,3.3,4,3.9,6.5c0.3,1.5,0.8,3.1,1.4,4.5c0.4,2,0.9,3.9,1.7,5.7c0.2,0.6,0.9,0.8,1.5,0.9c3,0.7,6.1,0.9,9.1,0.6
	C259.6,196.7,260.6,196.7,261.6,196.6z"/>
<path class="st4" d="M244.9,194.3c1.1,0.5,2,1.3,2.6,2.4c-1.6,1.2-3,2.5-4.2,4.1c-0.2-0.1-0.4,0-0.4,0.3l0,0l-0.2,0.1l0,0
	c-0.3-0.4,0-0.8,0.1-1.1C243.6,198.1,244.3,196.2,244.9,194.3z"/>
<path class="st4" d="M257.6,200c0.1-0.7,0.6-1.2,1.3-1.3c1-0.2,1.9-0.7,2.6-1.5l-0.5,2.3c-0.9,1.8-0.9,1.8-2.7,0.8L257.6,200z"/>
<path class="st15" d="M243,201c0-0.2,0.2-0.3,0.4-0.3C243.2,200.8,243.2,201.1,243,201z"/>
<path class="st2" d="M230.6,166c-1.3,0.6-2.7,1.1-4.1,1.4c-1.4,0.4-2.3-0.5-3.2-1.4s-1.5-1.8-2.2-2.6c-1.7-2.8-3.2-5.6-4.5-8.6
	l-1.5-3.3c-0.2-0.6-0.4-1.1-0.6-1.6c-0.7-1.8-0.7-1.8-2.6-1.7c-1,0-2,0.1-3,0.4c-2.5,0.1-3.1-0.3-3.3-2.4c0-0.2,0-0.4,0-0.6
	c0.1-0.4-0.1-0.7-0.5-0.8c-0.6-0.2-0.8-0.7-1.1-1.2c0-1.2-0.1-2.5-0.5-3.6c-0.2-0.5-0.1-1.1,0.2-1.6c0.4-0.7,0.4-1.5,0.1-2.2
	c-0.4-1.7-0.2-2.1,1.5-2.4l0.6-0.1c1.2,0.1,2.5,0,3.7-0.2c1-0.3,2,0.2,2.6,1.1c0.4,0.5,0.8,1,1.2,1.5c1.4,2.5,3.6,4.5,6.2,5.6
	c0.8,0.7,1.7,1.2,2.6,1.6c2.2,1.5,4.4,2.9,6.7,4.1c1.7,1.2,3.4,2.2,5.3,3.1c1.6,2.6,2.8,5.4,3.7,8.4c-0.4,1.4-0.9,2.7-1.5,4
	C234.3,163.6,232.4,164.7,230.6,166z"/>
<path class="st15" d="M246.4,189.6c-0.6-1.5-1.1-3-1.4-4.6c-0.6-2.5-1.9-4.8-3.9-6.5c-0.1-0.1-0.1-0.3-0.2-0.4
	c0.6-0.1,0.6-0.7,0.9-1.1c1.5-2.9,3.2-5.8,5-8.6c0.4-0.7,0.9-1.2,1.5-1.6C250.2,174.7,248.6,182.2,246.4,189.6z"/>
<path class="st13" d="M230.6,166c1.7-1.3,3.6-2.4,5.6-3.2l-0.4,1.6c-1.4,0.1-2.5,0.8-3.8,1.2C231.5,165.7,231.1,165.9,230.6,166z"/>
<path class="st1" d="M270.8,140.5c0.4,0,0.5,0.4,0.9,0.3c0.3,1,1.3,1.5,1.8,2.3c0.4,0.6,0.3,0.7-0.4,0.8
	C270.6,144.1,269.9,143.1,270.8,140.5C270.8,140.6,270.8,140.6,270.8,140.5z"/>
<path class="st14" d="M318.5,238.6c0,0.9,0,1.8,0,2.7c-0.1,0.9,0.6,1.8,1.5,1.8c0.1,0,0.1,0,0.2,0c1.1,0,1.6-0.6,1.6-1.9
	c0-0.9,0-1.8,0.1-2.7c1.7,0.6,3.1,1.6,3.2,3.6c0.1,3,0.4,6.1,0.2,9.1c-0.4,0.1-0.4,0.4-0.5,0.7c-0.4,2.2-0.8,4.5-1.4,6.6
	c-2.1,7.9-6.4,15.1-12.4,20.8c-3.6,3.4-7,7-10.7,10.3c-1.5-3.4-2.5-7-3.7-10.5c-2.2-6.5-4.1-13.1-5.5-19.8c-0.5-2.6-0.3-5.3-0.8-8
	c-0.1-0.5-0.1-0.9-0.2-1.4c0.3-0.7,0.4-1.4,0.4-2.1c0-1.9,0-3.9,0-5.9c-0.1-2.1,1.4-4,3.5-4.3c0,0.9,0,1.8,0,2.6
	c-0.1,1,0.7,1.8,1.6,1.9c0,0,0,0,0.1,0c1,0,1.7-0.9,1.7-1.8c0,0,0-0.1,0-0.1c0-0.9,0-1.8,0-2.6L318.5,238.6z M304.1,256.1
	c-0.4,0-0.4,0.3-0.5,0.5c-0.8,1.6-1.5,3.1-2.4,4.7c-0.3,0.6-0.1,0.8,0.4,1c2.3,1.1,4.5,2.3,6.8,3.4c0.6,0.3,0.8,0.1,1-0.4
	c0.7-1.5,1.5-3.1,2.3-4.6c0.3-0.6,0.1-0.8-0.4-1c-2.2-1.1-4.5-2.2-6.7-3.4L304.1,256.1z M309.5,246.9L309.5,246.9
	c-1.3,0-2.5,0.1-3.8,0.2c-0.5,0-0.8,0.1-0.7,0.7c0.1,1.8,0.2,3.7,0.3,5.5c0,0.4,0.1,0.6,0.6,0.5c2.7-0.2,5.3-0.3,8-0.4
	c0.5,0,0.6-0.3,0.5-0.7c-0.1-1.7-0.2-3.4-0.3-5.1c0-0.6-0.2-0.9-0.9-0.8C312,246.8,310.8,246.8,309.5,246.9L309.5,246.9z"/>
<path class="st8" d="M300.5,289.7c3.7-3.3,7.1-6.9,10.7-10.3c6-5.6,10.3-12.8,12.4-20.8c0.6-2.2,1-4.4,1.4-6.6
	c0.1-0.3,0-0.6,0.5-0.7c0.1,1.2,0.2,2.5,0.3,3.7c0.1,2.5,0.1,5.1,0.2,7.6c0.2,5.5,0.2,10.9,0.5,16.4c0.1,2.5,0.1,5.1,0.2,7.6
	c0.2,3.5,0.1,6.9,0.3,10.4c0.2,2.8-1.6,5-4.9,4.9c-2.7-0.1-5.4,0-8,0c0-0.2,0-0.4,0-0.6c0-2.9-1.4-4.2-4.3-3.9
	c-1.1,0.2-2.2,0.4-3.3,0.7c-0.5,0.1-1.2,0.5-1.5-0.2s-1.4-1.5-0.7-2.7c0.6-1,1-2,1.3-3.1c0.1-0.4,0.2-0.9-0.3-1.2s-0.7,0.2-1,0.4
	c-0.8,0.7-0.9,1.8-1.4,2.7c-0.5-0.5-0.3-1-0.3-1.5c0-0.9-0.3-1.5-1.4-1.2L300.5,289.7z"/>
<path class="st1" d="M301.1,291.4c1.1-0.3,1.4,0.3,1.4,1.2c0,0.5-0.2,1,0.3,1.5c0.5-0.9,0.6-2,1.4-2.7c0.3-0.3,0.5-0.7,1-0.4
	s0.4,0.7,0.3,1.2c-0.3,1.1-0.7,2.1-1.3,3.1c-0.7,1.1,0.4,1.9,0.7,2.7s1,0.3,1.5,0.2c1.1-0.3,2.2-0.5,3.3-0.7
	c2.9-0.2,4.2,1.1,4.3,3.9c0,0.2,0,0.4,0,0.6s0,0.6,0,0.9v1.1h-15.8c0.1-0.4,0.1-0.8,0.2-1.1c0.2-0.3,0.3-0.6,0.2-0.9
	c0.3-0.8,0.7-1.7,1-2.5c0.2-0.3,0.2-0.7,0-1c-1-1.6-2.1-3.1-3.4-4.4c-1-1.4-1-1.4,0.6-1.8l0.5-0.1
	C298.6,292.1,299.9,291.9,301.1,291.4z"/>
<path class="st14" d="M297.2,292.1l-0.5,0.1c-1.6,0.4-1.6,0.4-0.6,1.8c-2,2.2-4.1,4.3-6.3,6.2c-0.6-0.7-1-1.6-0.8-2.5
	c0.3-3.1,0-6.2,0.3-9.3c0.3-2.7-0.1-5.4,0.3-8.1c1.9,3,3.8,6,5.8,8.9C296.1,290.2,296.7,291.1,297.2,292.1z"/>
<path class="st7" d="M289.8,280.3c-0.4,2.7,0,5.4-0.3,8.1c-0.3,3.1,0,6.2-0.3,9.3c-0.1,0.9,0.2,1.9,0.8,2.5c0.5,0.8,1.3,1.3,2.2,1.5
	c2.1,0.5,4.3,0.1,6.4,0.2c0,0.3-0.1,0.7-0.2,0.9c-2.1,0.1-4.1,0-6.1-0.2c-1.2-0.2-1.9-1-2.9-1.5c-0.8-1.4-1.2-3.1-1-4.7
	c0-4.1,0.3-8.2,0.4-12.3c-0.1-1.8,0-3.6,0.4-5.3C289.2,279.4,289.5,279.9,289.8,280.3z"/>
<path class="st7" d="M294.3,237.9c-2.1,0.3-3.7,2.1-3.5,4.3c0,2,0,3.9,0,5.9c0,0.7-0.1,1.4-0.4,2.1l-0.6-3.8
	c0.2-1.8-0.1-3.6,0.2-5.3c0.3-2.2,2.1-3.9,4.3-4.1L294.3,237.9z"/>
<path class="st2" d="M184.4,62.3c0.3-0.3,0.8-0.5,1.2-0.4c-0.4,0.7-0.6,1.4-0.7,2.1c-0.1,1.6,1.2,3,2.8,3c0.5,0,0.9-0.1,1.3-0.3
	c0.9-0.4,1.9-0.9,2.8-1.4c1.5-0.6,2.2-2.3,1.6-3.8c-0.1-0.2-0.2-0.4-0.3-0.6c-0.3-0.5-0.5-0.8,0.3-0.8c4.7-0.4,9.5-0.3,14.2,0.3
	c0.2,2.9,0.8,5.7,1.1,8.6c0,0.3,0.1,0.6,0.1,0.8c0.1,3.3,0.1,6.7,0.3,10c0.1,1.3-0.5,2.6-1.7,3.2c-1.2,0.9-2.5,1.6-3.8,2.2
	c-0.2,0.1-0.4,0.2-0.5,0.5l0,0c-0.9-0.2-1.9,0.9-2.5,0.2c-0.5-0.6-0.3-1.8-0.4-2.7c0-0.2,0-0.4-0.1-0.6c0-0.2-0.2-0.4-0.4-0.4
	s-0.3,0.2-0.3,0.4c-0.1,0.8,0,1.6,0.1,2.4c0.2,0.7-0.2,1-0.8,1.1c-1.8,0.3-3.6,0.3-5.3,0c-0.8-0.1-0.8-0.7-0.7-1.2
	c0.2-1.7,0.6-3.4,0.8-5c0.1-0.4,0.3-0.9-0.2-1s-0.6,0.5-0.6,0.9c-0.3,1.8-0.5,3.5-0.8,5.3c-0.1,0.8-0.4,1.3-1.4,1
	c-2.8-0.7-5.3-1.9-7.6-3.7c-0.4-0.3-0.6-0.7-0.6-1.2l1.1-9.7C183.7,68.6,184.1,65.4,184.4,62.3z M202.4,67.7c0.6,0,1.3,0,1.9,0
	c1.6,0,2.9-1.4,2.9-3c0-1.3-0.9-2.4-2.2-2.8c-1.7-0.4-3.4-0.4-5.1,0c-1.4,0.4-2.3,1.6-2.2,3c0.1,1.5,1.3,2.6,2.8,2.7
	C201.2,67.7,201.8,67.7,202.4,67.7L202.4,67.7z M185.8,72.8c1.3-0.5,1.9-0.4,1.7,0.9c-0.1,0.7,0.4,1,1,0.9c1.1,0,2.3,0,3.5,0
	s1.3-0.2,1.1-1.4c-0.1-0.5-0.5-1.1-0.2-1.3c1.1-0.9-0.1-1-0.4-1.1C190.6,69.7,187.8,70.5,185.8,72.8L185.8,72.8z M206.3,72.2
	c-1.1-2.3-4.8-2.6-7.7-0.2c1-0.1,1.2,0.4,1.1,1.2c-0.1,1,0.3,1.7,1.5,1.5c0.8-0.1,1.5-0.1,2.3,0c0.9,0.1,1.4-0.3,1.4-1.2
	S205.4,72.1,206.3,72.2L206.3,72.2z"/>
<path class="st7" d="M202.9,85.9c0.9,0.3,1.2,1.1,1.4,2.1c-0.9-0.9-1.2-0.4-1.6,0.3c-2.6,3.9-7.8,5-11.7,2.5
	c-0.2-0.1-0.4-0.3-0.6-0.5c-0.4-0.3-0.7-0.6-1,0c-0.1,0.2-0.3,0.4-0.6,0.2s-0.1-0.4,0-0.7c0.2-0.4,0.5-0.8,0.7-1.2
	c0.1-0.2,0.2-0.6,0.6-0.6s0.2,0.4,0.2,0.7c0.1,0.4,0.4,0.3,0.7,0.2l11.4-1.9C203.1,87,202.9,86.4,202.9,85.9L202.9,85.9z
	 M201.4,87.7l-10.1,1.6C195.3,91.6,199.4,90.9,201.4,87.7L201.4,87.7z"/>
<path class="st9" d="M156.6,195c-3.2,1.1-6.5,1.7-9.9,1.9c-8.9-0.1-17-3-24.9-7c-4.5-2.3-9.4-3.7-14.1-5.7c-2-0.8-3.9-1.6-4.9-3.8
	c-0.8-1.6-1.5-3.2-2.1-4.9c-0.2-0.7-0.5-1.6,0.1-2.1s1.4,0,2.1,0.3l0.5,0.5c0.5,1.4,1,2.8,1.3,4.2c0.2,1,1,1.8,2,2
	c2.1,0.7,4.2,1,6.4,0.9c0.8,0,1.5-0.2,2.1-0.7c1.5-0.7,2.2-2.2,3-3.6c0.6-1.2,1.4-2.4,2.3-3.4c0.3-0.2,0.5-0.4,0.8-0.6
	s0.8-0.6,1.2-0.2s0.2,0.8,0.1,1.2c-0.3,0.9-0.7,1.7-1.1,2.5c-1.1,1.6-1.2,3.7-0.2,5.4c0.1,0.3,0.2,0.7,0.2,1.1
	c-0.1,1.2,0.6,1.8,1.7,2.1c1.9,0.6,3.8,1.3,5.7,1.8c2.9,0.8,5.7,1.2,8.5-0.6s5.6-3.7,8.2-5.8c1-0.6,2-1.3,3.1-1.8
	c0.6-0.3,0.4-0.5,0.1-0.9c-1.4-2-2.5-4.2-3.4-6.4c1.7-2,3.2-4.1,5-6c3.6-3.8,7.3-7.6,11.2-11c0,0.2,0.1,0.4,0.3,0.5
	c0.2,0.9,0.5,1.8,0.9,2.6c1.5,4.7,2.5,9.7,3,14.6c0.6,5.1,0.7,10.3,0.4,15.4c0,1-0.5,2-1.4,2.6C162.4,192.1,159.6,193.8,156.6,195z"
	/>
<path class="st8" d="M103.1,173.6c-0.7-0.3-1.5-0.8-2.1-0.3s-0.3,1.4-0.1,2.1c0.6,1.7,1.3,3.3,2.1,4.9l-0.2,6.4
	c-0.1,0-0.3,0.5-0.4,0.1c-0.7-3.9-1.3-7.8-2-11.7s-1.4-7.9-2.1-11.8c-0.2-1.1-0.4-2.3-0.5-3.4c0-1.1,0.7-2,1.7-2.4
	c0.8-0.4,1.7-0.8,2.5,0.1c0,0.3-0.1,0.7,0.4,0.7l0.6,2.6C103.5,165.3,103.5,169.5,103.1,173.6z"/>
<path class="st6" d="M103.1,173.6c0.4-4.1,0.5-8.3,0.1-12.5c0.1,0,0.2,0,0.3-0.1c5.1-2.3,5-2.4,5.1-7.5c0-1-0.1-2.1,0-3.1
	c0.4-1.8-0.4-3.5-1.9-4.5c1.4-3.9,3.8-7.3,6-10.8c0.1-0.1,0.3-0.3,0.4-0.4c0.8-0.3,1.5-0.5,2.3-0.6c0.1,0.7,0,1.5-0.2,2.2
	c-2.1,8.1-3.4,16.3-3.9,24.7c-2.7-0.2-4.4,1.2-5.7,3.4c-1.4,2.7-1.9,5.7-1.3,8.7c-0.6,0-0.8,0.4-0.9,0.9L103.1,173.6z"/>
<path class="st8" d="M101.4,144.4c1.2-2.4,2.4-4.8,3.7-7.2c0.3-0.5,3-1.6,3.7-1.4s0.3,0.5,0.1,0.8l-3.8,7.6
	c-0.1,0.2-0.2,0.4-0.2,0.6C103.7,143.5,102.5,144.4,101.4,144.4z"/>
<path class="st1" d="M102.6,158.6c-0.5-0.1-0.4-0.4-0.4-0.7c0.6-0.3,1.1-0.6,1.7-0.9c0.2-0.1,0.5,0,0.6,0.2c0,0,0,0,0,0
	c0.2,0.4-0.2,0.4-0.4,0.4C103.5,157.8,103,158.1,102.6,158.6z"/>
<path class="st7" d="M111.8,114.2c0-1.9,0.2-1.9,2.1-1.7c3.9,0.4,7.9,0.7,11.8-0.5c0.3-0.1,0.7-0.5,1,0s-0.1,0.6-0.3,0.8
	c-1.5,1.9-2.7,4.2-5.5,4.6c-2.7,0.4-5.4,0.2-8-0.7C111.6,116.2,111.8,115.2,111.8,114.2z M124.6,113c-0.2,0-0.5,0-0.7,0
	c-3.3,0.7-6.7,0.8-10,0.4c-0.4,0-1-0.3-0.9,0.4c0,0.6-0.5,1.4,0.7,1.7c1.7,0.3,3.4,0.5,5.1,0.3C121,115.8,123.1,114.7,124.6,113z"/>
<path class="st1" d="M111.5,161.2c0.4-8.3,1.7-16.6,3.9-24.7c0.2-0.7,0.3-1.4,0.2-2.2c0.5-0.4,1.2-0.8,0.8-1.7
	c0.3-0.4,0.7-0.5,1.2-0.5c0,0.4,0,0.8,0,1.2c-0.3,0.5-0.5,1-0.5,1.6c-0.4,0.6-0.7,1.4-0.8,2.2c-0.1,0.1-0.1,0.3-0.2,0.4
	c-2,7.8-3.2,15.8-3.6,23.9C112.2,161.4,111.8,161.3,111.5,161.2z"/>
<path class="st14" d="M116.4,132.6c0.3,0.9-0.3,1.2-0.8,1.7c-0.8,0.1-1.6,0.3-2.3,0.6c0.2-0.9,0.7-1.6,1.3-2.2H116.4z"/>
<path class="st14" d="M117.5,133.3c0-0.4,0-0.8,0-1.2c1.1-0.1,1.8-1.1,2.9-1.2C119.8,132.2,118.7,132.7,117.5,133.3z"/>
<path class="st7" d="M128.1,112.1c0,0.4-0.1,0.7-0.3,0.6c-0.6-0.5-1-1.1-1.3-1.8c-0.1-0.2,0.2-0.3,0.4-0.2
	C127.5,110.9,127.9,111.4,128.1,112.1z"/>
<path class="st9" d="M112,109.4h2C113.4,109.7,112.6,109.7,112,109.4z"/>
<path class="st7" d="M136.2,99.8c0.2,0,0.4,0.2,0.5,0.4C136.4,100.2,136.3,100.1,136.2,99.8z"/>
<path class="st7" d="M137,100.5c0.2,0,0.4,0,0.5,0.2L137,100.5z"/>
<path class="st7" d="M136.7,100.3l0.2,0.2L136.7,100.3z"/>
<path class="st14" d="M120.6,130.7l-0.2,0.3L120.6,130.7z"/>
<path class="st8" d="M122.8,99.6c1.8,0,3.7,0.3,5.4,1c0.5,0.2,0.6,0.4,0.7,1.1c0.1,2-1.2,2.1-2.5,2.5c-0.6,0.2-1.2,0.3-1.7,0.4
	c-2.4,0.6-2.9,0.2-3.1-2.7c0-0.7,0.5-1.7-1-1.4c-0.2,0-0.3-0.2-0.3-0.3s0.2-0.3,0.4-0.4C121.4,99.6,122.1,99.5,122.8,99.6z"/>
<path class="st8" d="M121.6,93.1c3,1.1,5.9,2.3,8.7,3.8c0.3,0.2,0.8,0.3,0.9,0.7c0,0.7-0.2,0.9-0.9,0.6c-2.7-1.4-5.7-2.2-8.8-2.3
	c-0.8,0-1-0.3-0.6-1S121.4,93.7,121.6,93.1z"/>
<path class="st14" d="M133.3,129.8c2.9,0.3,5.8,0.6,8.6,0.9c3.7,0.4,7.3,1.1,10.9,2.2c0.3,0.1,0.7,0.3,1,0.4
	c1.8,0.9,2.1,2.1,0.9,3.8c-0.6,0.8-1.3,1.6-2.1,2.1c-0.4,0.2-0.6,0.5-0.8,0.9c-0.4-0.1-0.8-0.3-1.1-0.6c-3.4-2.5-7-4.4-11.3-4.9
	c-0.5-0.2-1-0.2-1.5-0.1c-0.3-0.3-0.8-0.2-1.2-0.3c-0.1-0.4,0.3-1.1-0.3-1.3s-0.5,0.5-0.6,0.9C133.2,132.9,132.7,132.1,133.3,129.8z
	"/>
<path class="st0" d="M116.3,137.1c0-0.8,0.3-1.5,0.8-2.2c0.8,2.1,2.5,3.2,4.4,3.9c3.5,1.3,7.4,1.1,10.8-0.6c0.9-0.5,1.9-1,2.9-1.3
	c0,0.7-0.2,1.4-0.5,2c-3.1,2.1-6.9,2.9-10.6,2.3C121,140.7,118.2,139.8,116.3,137.1z"/>
<path class="st1" d="M134.6,139c0.3-0.6,0.5-1.3,0.5-2c0.2-1,0.4-2.1,0.6-3.1c0.1-0.4,0.1-1,0.6-0.9s0.2,0.9,0.3,1.3
	c-0.2,0.5-0.3,1-0.3,1.4c-0.3,0.7-0.4,1.5-0.4,2.2c-0.1,0.2-0.2,0.4-0.2,0.7c-1.8,8.5-3.5,17-5.9,25.3c-0.1,0.3-0.2,0.7-0.1,1
	c-0.3,0.2-0.4,0.4-0.5,0.7l-0.7-0.3v-0.8c0.1-0.2,0.2-0.4,0.2-0.5c1.7-5.8,3.1-11.7,4.3-17.6C133.8,144,134.3,141.5,134.6,139z"/>
<path class="st2" d="M265.5,292.6c-0.8,0.3-1.6,0.4-2.4,0.2c-0.7-4-2-8-3-11.9c-2.4-8.7-4.9-17.3-6.7-26.2c-0.4-1.9-0.6-3.8-0.9-5.7
	c-0.1-0.4-0.2-0.9-0.4-1.2c-3.1-7.3-5.2-15-6.4-22.8c0.9,0.2,1.7,0.5,2.4,0.9c4.8,2,10,2.7,15.1,2c0.5-0.1,1.1,0,1.5,0.4
	c0.1,2.1,0.2,4.1,0.2,6.2c0,5.1,0,10.2-0.4,15.3c-0.2,2.5,0.5,4.8,0.9,7.2c0.5,3.8,0.5,7.6-0.1,11.4c-0.6,6-0.7,11.9-0.2,17.9
	C265.3,288.4,265.4,290.5,265.5,292.6z"/>
<path class="st2" d="M266.5,229.1c-0.2,0-0.2-0.1-0.2-0.2C266.4,228.8,266.5,228.9,266.5,229.1z"/>
<path class="st13" d="M197.4,123.5v-4.2c-0.7,0.3-1.4,0.7-2-0.1c-0.3-0.4-0.3-0.9,0-1.2c0.5-0.8,1.2-0.3,2-0.1
	c-0.2-1.1-0.3-2.2-0.2-3.3c0-0.4-0.1-1,0.4-1s0.6,0.6,0.6,1c0,2.4,0,4.7,0,7.1c0,0.6,0.1,1.3,0.2,1.9c0,3,0,6.1,0,9.1
	c0.1,3.7,0.1,7.3,0.2,11c0,2.6,0,5.3,0,7.9c0.1,3.7-0.3,7.4,0.2,11v17c0,2.8,0,5.6,0,8.4c-0.4,0.4-0.2,0.8-0.2,1.2
	c0.1,2.7,0,5.4-0.2,8.1c0,0.8,0,1.6-0.1,2.4s-0.4,0.9-0.9,0.3c0.3-4,0.6-8,0.5-12.1c0-2.8,0-5.6,0-8.4c0.2-0.4,0.3-0.8,0.2-1.3
	c0.1-2.7,0-5.4-0.2-8.1c0-2.6,0-5.3,0-7.9c0-3.6,0-7.2,0-10.8c0.1-2.6-0.1-5.3-0.2-7.9v-11C197.5,129.6,197.3,126.6,197.4,123.5z"/>
<path class="st12" d="M197.4,123.5c-0.1,3,0.1,6.1,0.2,9.1c-1.9,0-3.8,0-5.8,0c-1.1,0-1.5,0.4-1.4,1.5s0,2.1,0,3.1L188,137
	c-0.2-1.4-0.4-2.9-0.6-4.3c0.7,0,1.4,0,2.2,0s0.9-0.2,0.9-0.9c-0.1-2.8,0.4-5.5,0.2-8.2L197.4,123.5L197.4,123.5z"/>
<path class="st12" d="M207.9,121.6c0,0.7-0.2,1.3-0.4,1.9h-6.7v-5.8c0.9,1.1,1.5,0.5,2.2-0.1c1.2-1.1,2.5-2.1,3.8-3.1
	c0.2-0.1,0.3-0.4,0.6-0.3s0.2,0.4,0.2,0.7c-0.1,2,0,4.1,0.2,6.1C207.8,121.2,207.8,121.4,207.9,121.6z"/>
<path class="st12" d="M198.4,132.6c0-3,0-6.1,0-9.1h2.4v9.1l0,0L198.4,132.6z"/>
<path class="st2" d="M188,136.9l2.4,0.3c0.5,0.8-0.1,1.5-0.2,2.3c-0.3,0.3-0.8,0.7-0.6,1.1c0.6,1.9-0.6,3.7-0.2,5.6
	c0.1,0.6-0.1,1.3-0.6,1.8c-0.3,0.3-0.4,0.7-0.4,1.1c-0.1,2.6-0.5,2.9-3,2.9c-1.1-0.3-2.2-0.4-3.3-0.4c-0.8,0.1-1.7-0.4-2.2,0.6
	c-1,2-2.1,4-3,6.1l-0.2,0.3l-0.1,0.2c-0.1,0.2-0.2,0.4-0.3,0.6c-1.2,2.9-2.7,5.6-3.4,8.7c-0.7,1-1.1,2.2-1.2,3.4
	c-0.2,1.1-0.6,1.3-1.7,1.2c-1.4-0.1-2.8-0.5-4.3-0.6c-0.5-5-1.5-9.9-3-14.6c-0.4-0.8-0.7-1.7-0.9-2.6c0.8-0.6,1.7-1.3,2.4-2
	l11.5-8.6c1.8-0.9,3.3-2.3,4.3-4.1c0.7-0.9,1.5-1.8,2.1-2.7c0.4-0.7,1.2-1.1,2-0.9C185.5,136.9,186.7,137,188,136.9z"/>
<path class="st11" d="M180.1,140.3c-1,1.8-2.5,3.2-4.3,4.1h-3.1c0-3.8,0-7.7,0-11.5c0-0.1,0-0.1,0-0.2h6.9L180.1,140.3z"/>
<path class="st12" d="M179.7,132.6h-6.9c0-3,0-6.1,0-9.1h6.7C179.4,126.6,179.8,129.6,179.7,132.6z"/>
<path class="st13" d="M190.7,123.5c0.2,2.8-0.3,5.5-0.2,8.2c0,0.7-0.3,0.9-0.9,0.9s-1.4,0-2.2,0c-0.4-3-0.8-6.1-1.2-9.1L190.7,123.5
	z"/>
<path class="st13" d="M200.8,132.6v-9.1h6.7c-0.3,3.1-1,6.1-1.5,9.1L200.8,132.6z"/>
<path class="st12" d="M214.2,123.5h5.3v9.1h-5.9C213.8,129.6,214,126.6,214.2,123.5z"/>
<path class="st11" d="M213.5,132.6h5.9c0,0.1,0,0.1,0,0.2v8.7c-2.6-1.1-4.8-3.1-6.2-5.6C213.3,134.9,213.4,133.8,213.5,132.6z"/>
<path class="st12" d="M200.8,132.6h5.2c-0.2,0.3-0.2,0.6-0.2,0.9l-0.6,0.1c-1.7,0.4-1.9,0.7-1.5,2.4c0.3,0.7,0.3,1.6-0.1,2.2
	c-0.3,0.5-0.4,1.1-0.2,1.6c0.3,1.2,0.5,2.4,0.5,3.6h-3.2C200.8,140,200.8,136.3,200.8,132.6L200.8,132.6z"/>
<path class="st7" d="M314,302.9c0-0.3,0-0.6,0-0.9c2.7,0,5.4-0.1,8,0c3.3,0.1,5.1-2.1,4.9-4.9c-0.2-3.5-0.2-6.9-0.3-10.4
	c-0.1-2.5,0-5.1-0.2-7.6c-0.3-5.5-0.3-10.9-0.5-16.4c-0.1-2.5-0.1-5.1-0.2-7.6c0-1.2-0.2-2.5-0.3-3.7c0.2-3.1-0.2-6.1-0.2-9.1
	c-0.1-1.9-1.5-3-3.2-3.6v-0.7c1.6,0,2.6,1,3.5,2.1c0.5,0.9,0.8,2,0.7,3.1c0,3.5,0.1,7,0.3,10.5c0.1,2.6,0,5.1,0.2,7.6
	c0.3,5.3,0.3,10.6,0.5,15.9c0.1,2.7,0,5.3,0.2,8c0.4,4,0.1,8,0.4,11.9c0.3,3.6-1.9,5.7-5.7,5.8C319.4,302.9,316.7,302.9,314,302.9z"
	/>
<path class="st13" d="M172.7,144.4h3.1l-11.5,8.6c-0.1-0.5,0.2-1-0.2-1.4c0-2.3,0-4.6,0-6.9C167,144.7,169.8,144.2,172.7,144.4z"/>
<path class="st13" d="M228.8,147.3c-2.3-1.2-4.6-2.6-6.7-4.1c2.2-0.2,4.5-0.3,6.7-0.2V147.3z"/>
<path class="st6" d="M129.7,165c-0.1-0.3,0-0.7,0.1-1c2.4-8.3,4.2-16.8,5.9-25.3c0.1-0.2,0.1-0.5,0.2-0.7c1.3-0.9,2.5-2,3.4-3.3
	c4.3,0.4,7.9,2.4,11.3,4.9c0.3,0.3,0.7,0.5,1.1,0.6c0.1,0.8,0.9,1,1.4,1.4c1.7,1.6,3.4,3.4,4.8,5.3c0.2,0.2,0.3,0.3,0.5,0.5l2.9,4.3
	l0.4,0.9c-0.8,0.3-1.6,0.8-2.2,1.4c-5.3,4.6-9.8,9.9-14.4,15.1c-0.4,0.4-0.6,1-0.4,1.5l0.8,10.1c-2.6,2.1-5.4,4-8.2,5.8
	s-5.6,1.4-8.5,0.6c-1.9-0.5-3.8-1.3-5.7-1.8c-1.1-0.3-1.8-0.9-1.7-2.1c0-0.4-0.1-0.7-0.2-1.1l2.9,0.1c1.6-0.3,3.3-0.6,4.9-0.8
	c0.6-0.1,0.7-0.5,0.7-0.9c0.6-4.5,1.2-9.1,1.3-13.6C131.3,165.5,130.8,165,129.7,165z"/>
<path class="st7" d="M249.7,104.3c-2.2-0.1-4.3-1.2-5.5-3.1c-0.9-1.2-0.6-2.2,0.5-3.2c0.4,0.1,0.7-0.3,1.1-0.4
	c1.4-0.8,2.9-1.3,4.4-1.6C250.6,98.8,250.4,101.6,249.7,104.3z"/>
<path class="st14" d="M249.7,104.3c0.7-2.7,0.9-5.5,0.5-8.3c1-0.3,2.1-0.5,3.2-0.6c0.2,1.8,0.2,3.5,0,5.3c-0.2,0.9-0.3,1.8-0.2,2.7
	l0,0H253c0,0,0,0.1,0,0.1C252.1,104.4,250.8,104.7,249.7,104.3z"/>
<path class="st7" d="M264.1,99.9c-1.1,0.6-1.8,0-2.4-0.7c-1-1.3-1.6-2.8-1.8-4.4c1.4-0.2,2.8-0.2,4.2,0l0,0
	C264.4,96.4,264.4,98.2,264.1,99.9z"/>
<path class="st7" d="M253.1,103.4c-0.1-0.9,0-1.8,0.2-2.7c0.2-1.8,0.2-3.5,0-5.3l1.2-0.3c0.7,0.5,1.1,1.3,1,2.2c0.2,2-0.4,4-1.7,5.6
	C253.7,103.2,253.4,103.4,253.1,103.4z"/>
<path class="st14" d="M264.1,99.9c0.3-1.7,0.3-3.4,0-5.1c1,0,1.8,0.7,2.8,1c0.3,0.1,0.5,0.5,0.4,0.8c0,0,0,0.1,0,0.1
	C266.6,98.2,265.8,99.5,264.1,99.9z"/>
<path class="st3" d="M254.5,95.2l-1.2,0.3c-1.1,0.1-2.1,0.2-3.2,0.6c-1.6,0.3-3.1,0.8-4.4,1.6c-0.4,0.2-0.6,0.5-1.1,0.4
	c0.1-0.5,0.5-0.8,0.9-1c2.1-1.4,4.5-2.3,7-2.7C253.3,94.2,254.2,94.2,254.5,95.2z"/>
<path class="st3" d="M264.1,94.7c-1.4-0.2-2.8-0.2-4.2,0c-0.5-2.2,0-2.7,2.3-2.3c1.1,0,2,0.9,1.9,2
	C264.1,94.5,264.1,94.6,264.1,94.7z"/>
<path class="st7" d="M253,103.6c0,0,0-0.1,0-0.1c0,0,0.1,0,0.1,0C253.1,103.5,253,103.5,253,103.6z"/>
<path class="st15" d="M311.3,236c-2.2,0.1-4.5,0-6.7-0.2c0-1,0-2,0-3c0-1.3,0.5-1.8,1.8-1.8h3.4c0.8-0.1,1.5,0.5,1.6,1.2
	c0,0.1,0,0.2,0,0.3C311.4,233.7,311.3,234.8,311.3,236z"/>
<path class="st11" d="M161.8,152.5l-0.4-0.9h2.6c0.4,0.4,0.2,1,0.2,1.4c-0.8,0.7-1.6,1.4-2.4,2c-0.2-0.1-0.3-0.3-0.3-0.5
	C162.1,153.9,162.9,153.3,161.8,152.5z"/>
<path class="st7" d="M318.5,238.6l-20.8-0.7V237c5.8,0.2,11.5,0.4,17.3,0.5c1.1,0,2.3,0.1,3.5,0.2L318.5,238.6z"/>
<path class="st15" d="M296,241.3c-0.4,0-0.7-0.2-0.7-0.6c0-0.3,0.2-0.6,0.5-0.6c0,0,0.1,0,0.1,0c0.4,0,0.7,0.2,0.7,0.6
	S296.4,241.2,296,241.3z"/>
<path class="st15" d="M320.3,240.8c0.3,0,0.6,0.3,0.6,0.6c0,0,0,0.1,0,0.1c0,0.3-0.2,0.6-0.5,0.6c0,0,0,0-0.1,0
	c-0.4,0-0.7-0.3-0.7-0.6c0,0,0,0,0,0C319.6,241.1,319.9,240.9,320.3,240.8z"/>
<path class="st7" d="M216.7,154.8c1.3,2.9,2.8,5.8,4.5,8.6c-0.1,4.3,0,8.5-0.2,12.8c-0.2,2.9-0.5,5.9-1,8.8c-0.2,1.1-0.7,1.9-1.9,2
	c-0.5,0.1-0.9,0.2-1.4,0.3c0-2.5,0-5.1-0.1-7.7c0-0.8,0.1-1.6,0.1-2.4c0.6,1.9,1.1,3.8,1.7,5.7c0.5-0.2,0.8-0.7,0.6-1.3
	c0,0,0-0.1,0-0.1c-0.8-3.9-1.7-7.8-2.5-11.8c0.2-0.2,0.3-0.4,0.2-0.6v-6.3L216.7,154.8z"/>
<path class="st2" d="M216.7,193.5c-1.8,0.6-3.5,1.3-5.3,1.9c-0.4,0.1-0.7,0.4-0.6,0.8c0.5,2.8,0.9,5.6,3,7.8
	c0.4,0.4,0.9,0.7,1.4,0.9c0.2,0,0.4,0.3,0.3,0.5c0,0.1,0,0.1-0.1,0.2c-0.1,0.3-0.4,0.1-0.6,0.1c-1.6-0.7-2.8-1.9-3.4-3.5
	c-0.8-1.7-1.3-3.5-1.4-5.4c0-0.5-0.1-0.7-0.7-0.5c-2.2,0.9-4.5,1.7-6.7,2.5c-0.5,0.1-0.8,0.6-0.8,1.1c0.1,3.3-0.1,6.7-0.5,10
	c-0.3,2.4-0.4,3-2.7,3.4c-0.5,0-0.9,0.5-0.9,1c0,0.1,0,0.2,0.1,0.3c0.5,3.2,1.1,6.5,1.6,9.7c0,0,0,0.1,0,0.1
	c-0.1,0.5,0.3,1.3-0.2,1.4s-0.6-0.8-0.6-1.2c-0.7-4.3-1.3-8.6-1.9-13c-0.3-2.2-0.4-4.5-0.5-6.8c-0.1-1.4-0.2-2.7-0.2-4.1
	c0-0.7-0.5-0.7-0.9-0.8l-9.6-1.8c-1.5-0.3-3-0.6-4.4-0.9c-0.3-0.1-0.9,0.1-0.8-0.5s0.7-0.3,1-0.3c1.3,0.2,2.7,0.4,4,0.8
	c0.6,0.1,1.3,0.2,1.9,0.1l0,0c0.2,0.4,0.6,0.2,0.9,0.2h0.8c0.4,0.2,0.9,0.3,1.3,0.5l6.6,2c0.2,2.2,0.3,4.4,0.5,6.7
	c0.1,1.7,0.3,3.4,0.5,5.1c0,0.4,0.1,0.7,0.6,0.7c1.1,0.2,2.1-0.6,2.3-1.7c0,0,0-0.1,0-0.1c0.6-4,0.4-8.1,0.7-12.1
	c1-0.6,2-1.2,3.1-1.7c0.1,0.2,0.2,0.1,0.2,0l0,0c0.3,0,0.6,0.1,0.7-0.2l0,0c0.8-0.1,1.6-0.3,2.4-0.7c3-1.1,5.9-2.4,9-3.2
	C216.9,193,216.8,193.2,216.7,193.5z"/>
<path class="st12" d="M216.6,179.6c0,2.6,0,5.1,0.1,7.7c0,0.2-0.1,0.3-0.1,0.5h-7.2c0.1-2.7,0-5.4-0.2-8.1L216.6,179.6z"/>
<path class="st11" d="M209.4,187.8h7.1c0,1,0,1.9,0,2.9l-6.9,3.5C209.4,192,209.3,189.9,209.4,187.8z"/>
<path class="st10" d="M209.7,194.1l6.9-3.5c0,0.7,0.1,1.4,0.1,2.1c-3.1,0.8-6,2.1-9,3.2c-0.8,0.4-1.6,0.6-2.4,0.7
	C206.6,195.5,208.3,195.1,209.7,194.1z"/>
<path class="st4" d="M242.8,201.1h-0.2C242.7,200.9,242.7,201.1,242.8,201.1L242.8,201.1z"/>
<path class="st7" d="M173,168.1c0.7-3.1,2.2-5.8,3.4-8.7c0.1-0.2,0.2-0.4,0.3-0.6c0,1,0.1,2.1,0.1,3.1c0,5.3,0,10.5-0.1,15.8
	c0,0.2,0.1,0.4,0.2,0.5c-0.4,1.3-0.1,2.7-0.2,4c0,1.9,0,3.8-0.1,5.7c-1.4-0.6-2.4-1.2-2.5-3.1c-0.2-5-0.7-9.9-1.1-14.9
	C173.1,169.3,173.1,168.7,173,168.1z"/>
<path class="st12" d="M176.7,187.9c0-1.9,0.1-3.8,0.1-5.7c0.6-0.8,0.5-1.8,0.9-2.6h4.3v8.6h-5.2L176.7,187.9z"/>
<path class="st11" d="M176.9,188.3h5.2v7.5l-2.4-0.5c-0.3-0.1-0.6-0.2-0.9-0.3c-2-0.6-2-0.6-2-2.7
	C176.8,190.9,176.9,189.6,176.9,188.3z"/>
<path class="st12" d="M182.1,195.7v-7.5l0,0c2.3-0.1,4.6,0.2,6.9-0.2l0,0c0.1,3.2-0.4,6.4-0.3,9.5h-0.8c-0.2-0.2-0.5-0.3-0.9-0.2
	l0,0C185.5,196.6,183.7,196.5,182.1,195.7z"/>
<path class="st2" d="M185.4,199.4c-0.5,2.7-1,5.5-3,7.7c-0.2,0.3-0.6,0.7-1,0.4s0.1-0.6,0.4-0.9c1.5-1.9,2.4-4.1,2.6-6.4
	c0-0.3,0.1-0.6,0.2-0.9c0.1-0.3,0-0.9,0.6-0.7S185.3,199.1,185.4,199.4z"/>
<path class="st7" d="M275.1,133.8c0,0.1,0,0.4-0.2,0.3s-0.1-0.3,0-0.4L275.1,133.8z"/>
<path class="st14" d="M216.4,169.8c0.9,3.9,1.7,7.8,2.5,11.8c0.2,0.5,0,1.1-0.5,1.3c0,0-0.1,0-0.1,0l-1.7-5.7l-1.9-7
	c-0.7-2.5-1.3-4.9-2-7.4c-0.9-3.9-2-7.7-3.1-11.5l-0.7-2.7c1-0.3,2-0.4,3-0.4l0.8,3.6c0.7,3.7,1.5,7.4,2.4,11L216.4,169.8z"/>
<path class="st13" d="M208.9,148.6c0.2,0.9,0.5,1.8,0.7,2.7l-1.2,0.2h-7.7c0-2.6,0-5.3,0-7.9l0,0h3.2c0.3,0.4,0.6,1,1.1,1.2
	c0.4,0.1,0.6,0.5,0.5,0.8c0,0.2,0,0.4,0,0.6C205.8,148.4,206.4,148.8,208.9,148.6z"/>
<path class="st11" d="M215.1,162.9c-0.9-3.6-1.7-7.3-2.4-11c0.8-0.6,1.6-0.1,2.4-0.3l1.5,3.3l-0.1,8L215.1,162.9z"/>
<path class="st12" d="M215.2,151.6c-0.8,0.1-1.7-0.3-2.4,0.3l-0.8-3.6c1.9-0.1,1.9-0.1,2.6,1.7C214.8,150.5,215,151,215.2,151.6z"/>
<path class="st15" d="M304.1,256.1l0.5,0.2c2.2,1.1,4.5,2.3,6.7,3.4c0.5,0.3,0.7,0.5,0.4,1c-0.8,1.5-1.6,3-2.3,4.6
	c-0.2,0.5-0.4,0.7-1,0.4c-2.2-1.2-4.5-2.3-6.8-3.4c-0.5-0.2-0.7-0.4-0.4-1c0.8-1.5,1.6-3.1,2.4-4.7
	C303.7,256.4,303.8,256.1,304.1,256.1z M311.3,260.5c0-0.5-0.4-0.5-0.6-0.7c-2-1-3.9-2-5.9-3c-0.5-0.2-0.8-0.2-1,0.3
	c-0.6,1.3-1.2,2.5-1.9,3.8c-0.4,0.7-0.2,1,0.5,1.3c1.2,0.5,2.3,1.1,3.4,1.7c1,0.5,2.1,1.4,2.9,1.2s1.1-1.8,1.7-2.7
	C310.7,261.8,311,261.1,311.3,260.5L311.3,260.5z"/>
<path class="st15" d="M309.5,246.9c1.2-0.1,2.5-0.1,3.7-0.2c0.6,0,0.8,0.2,0.9,0.8c0.1,1.7,0.2,3.4,0.3,5.1c0,0.4,0,0.7-0.5,0.7
	c-2.7,0.1-5.3,0.3-8,0.4c-0.4,0-0.5-0.1-0.6-0.5c-0.1-1.8-0.2-3.7-0.3-5.5c0-0.5,0.2-0.7,0.7-0.7C307,247.1,308.2,247,309.5,246.9
	L309.5,246.9z M313.6,250.4c0-0.6,0-1.3,0-1.9c0-0.8-0.3-1.3-1.3-1.2c-2,0.2-4,0.2-6,0.3c-0.6,0-0.9,0.2-0.8,0.9
	c0.1,1.3,0,2.5,0.2,3.8c0.1,1,0.5,1.1,1.3,1c1.4-0.1,2.8-0.2,4.2-0.2C313.7,252.9,313.7,252.9,313.6,250.4L313.6,250.4z"/>
<path class="st8" d="M298.6,302c-2.1-0.1-4.3,0.2-6.4-0.2c-0.9-0.2-1.7-0.7-2.2-1.5c2.2-2,4.3-4.1,6.3-6.2c1.3,1.3,2.4,2.8,3.4,4.4
	c0.2,0.3,0.2,0.7,0,1C299.3,300.2,299,301.1,298.6,302z"/>
<path class="st1" d="M202.4,67.7c-0.6,0-1.3,0-1.9,0c-1.5-0.1-2.7-1.2-2.8-2.7c0-1.4,0.9-2.6,2.2-3c1.7-0.4,3.4-0.4,5.1,0
	c1.6,0.4,2.5,2,2.1,3.5c-0.3,1.3-1.5,2.2-2.8,2.2C203.7,67.7,203.1,67.7,202.4,67.7z"/>
<path class="st1" d="M185.8,72.8c1.9-2.2,4.8-3.1,6.8-2.1c0.3,0.2,1.5,0.2,0.4,1.1c-0.3,0.2,0.1,0.9,0.2,1.3
	c0.2,1.2,0.1,1.4-1.1,1.4s-2.3,0-3.5,0c-0.7,0-1.1-0.2-1-0.9C187.7,72.4,187.1,72.3,185.8,72.8z"/>
<path class="st1" d="M206.4,72.2c-1-0.1-1.4,0.3-1.3,1.3s-0.4,1.3-1.4,1.2c-0.8-0.1-1.5-0.1-2.3,0c-1.2,0.2-1.6-0.5-1.5-1.5
	c0.1-0.8-0.1-1.3-1.1-1.2C201.6,69.6,205.3,69.9,206.4,72.2z"/>
<path class="st10" d="M201.4,87.7c-1.9,3.2-6.1,3.8-10.1,1.6L201.4,87.7z"/>
<path class="st14" d="M124.2,182.1l-2.9-0.1c-0.9-1.7-0.8-3.8,0.2-5.4c0.4-0.8,0.8-1.7,1.1-2.6c0.2-0.4,0.3-0.9-0.1-1.2
	s-0.8,0-1.2,0.2s-0.5,0.4-0.8,0.6c0-2.2,0.2-4.4-0.6-6.5c-1-2.8-3.4-4.9-6.4-5.3c0.4-0.8,0.9-1.5,1.3-2.3c0.1-0.4,0.5-0.6,0.9-0.6
	c1.7,0,3.4,0.3,5,0.7c0.6,1.2,1.2,2.3,1.8,3.5c0.1,0.2,0.2,0.6,0.6,0.6c1.1,0,1,0.8,1,1.6L124.2,182.1z"/>
<path class="st8" d="M113.6,161.9c3,0.4,5.4,2.5,6.4,5.3c0.8,2.1,0.6,4.3,0.6,6.5c-0.9,1-1.7,2.2-2.3,3.4c-0.7,1.4-1.4,2.8-3,3.6
	l-3.8-0.1c1-0.3,1.9-0.9,2.6-1.5c3.1-3.4,3.6-7.3,2.6-11.6c-0.5-2.2-1.7-4.2-3.4-5.6L113.6,161.9L113.6,161.9z"/>
<path class="st0" d="M161.8,152.5c1.1,0.8,0.3,1.3-0.2,2c-4,3.5-7.6,7.2-11.2,11c-1.8,1.9-3.4,4-5,6c-0.2-0.3-0.4-0.6-0.5-0.9
	c-0.2-0.5,0-1.1,0.4-1.5c4.6-5.2,9.1-10.6,14.4-15.1C160.3,153.3,161,152.8,161.8,152.5z"/>
<path class="st3" d="M144.9,170.6c0.2,0.3,0.3,0.6,0.5,0.9c0.9,2.2,2.1,4.4,3.4,6.4c0.3,0.4,0.4,0.6-0.1,0.9c-1,0.6-2,1.2-3.1,1.8
	L144.9,170.6z"/>
<path class="st5" d="M111.6,180.6l3.8,0.1c-0.6,0.5-1.3,0.7-2.1,0.7c-2.2,0-4.3-0.3-6.4-0.9c-1-0.2-1.8-1-2-2
	c-0.3-1.4-0.8-2.8-1.3-4.2c0.1-0.5,0.3-0.9,0.9-0.9c0.2,1,0.5,2,0.9,3C106.6,179.1,108.9,180.7,111.6,180.6z"/>
<path class="st14" d="M111.6,180.6c-2.7,0.1-4.9-1.5-6.1-4.3c-1.6-3.8-1.5-8,0.4-11.7c1.2-2.2,3-3.6,5.7-3.4c0.3,0.2,0.6,0.3,1,0.2
	l1,0.4c1.7,1.4,2.9,3.4,3.4,5.6c0.9,4.3,0.5,8.2-2.6,11.6C113.5,179.7,112.6,180.2,111.6,180.6z M112.7,167.9
	c-1.4,0.3-1.7,1.5-0.6,3c-1.5,0.6-2.2-0.5-2.5-2c-0.1-1,0.2-2.1,0.7-3c-0.3,0.2-0.4,0.3-0.5,0.4c-1.6,2.4-1.5,7.4,0.3,9.6
	c0.8,1.3,2.4,1.6,3.7,0.9c0.3-0.2,0.5-0.4,0.7-0.6c2.5-2.6,2.4-8.2-0.2-10.9c-0.9-0.9-2.3-1-3.3-0.3c-0.1,0.1-0.3,0.3-0.3,0.5
	c0,0.2,0.3,0.2,0.4,0.2C112.6,165.8,112.7,166.8,112.7,167.9z"/>
<path class="st10" d="M124.6,113c-1.4,1.7-3.6,2.8-5.8,2.9c-1.7,0.1-3.4,0-5.1-0.3c-1.2-0.2-0.7-1-0.7-1.7c-0.1-0.8,0.6-0.5,0.9-0.4
	c3.3,0.4,6.7,0.2,10-0.4C124.1,113,124.4,113,124.6,113z"/>
<path class="st6" d="M113.5,161.8l-1-0.4c0.4-8.1,1.6-16,3.6-23.9c0-0.1,0.1-0.3,0.2-0.4c1.9,2.6,4.7,3.6,7.7,4.1
	c3.7,0.7,7.5-0.2,10.6-2.3c-0.3,2.5-0.8,5-1.4,7.5c-1.2,5.9-2.6,11.8-4.3,17.6c-0.1,0.2-0.1,0.4-0.2,0.5c-1.5,0.2-2.8-0.7-3.3-2.1
	c-0.3-0.6-0.6-1.1-0.9-1.7c-0.2-0.5-0.7-0.8-1.2-0.8c-0.8-0.1-1.5-0.2-2.2-0.3c-1.6-0.4-3.3-0.7-5-0.7c-0.4,0-0.8,0.2-0.9,0.6
	c-0.4,0.8-0.9,1.5-1.3,2.3L113.5,161.8L113.5,161.8z"/>
<path class="st0" d="M139.4,134.7c-0.9,1.3-2.1,2.4-3.4,3.3c0-0.8,0.2-1.5,0.4-2.2c0.6-0.2,1.2-0.6,1.5-1.2
	C138.4,134.5,138.9,134.5,139.4,134.7z"/>
<path class="st9" d="M137.9,134.6c-0.3,0.6-0.9,1-1.5,1.2c0-0.5,0.1-1,0.3-1.4C137.1,134.4,137.6,134.2,137.9,134.6z"/>
<path class="st8" d="M120.9,159.7c0.7,0.1,1.5,0.2,2.2,0.3c0.5,0,1,0.3,1.2,0.8c0.3,0.5,0.7,1.1,0.9,1.7c0.5,1.4,1.8,2.3,3.3,2.1
	v0.8c-1.1,0-2,1-1.9,2.1c0,0.1,0,0.2,0,0.2c0,0.2,0.1,0.4,0.3,0.4c0.2,0,0.4-0.1,0.4-0.3c0.1-0.2,0.1-0.5,0.2-0.7
	c0.1-0.4,0.2-0.8,0.7-0.8c0.5,0,0.8,0.4,0.8,0.9c0,0.1,0,0.3,0,0.5c0,0.3,0.1,0.7,0.4,0.7s0.4-0.4,0.4-0.7c0.1-0.8-0.2-1.5-0.8-2
	c0.1-0.3,0.2-0.6,0.5-0.7c1.1,0.1,1.5,0.5,1.5,1.7c-0.1,4.6-0.8,9.1-1.3,13.6c0,0.4-0.2,0.8-0.7,0.9c-1.6,0.2-3.3,0.5-4.9,0.8v-16.8
	c0-0.7,0.2-1.5-1-1.6c-0.3,0-0.4-0.3-0.6-0.6C122.1,162,121.5,160.9,120.9,159.7z"/>
<path class="st10" d="M129.2,165.7c0.6,0.5,0.8,1.2,0.8,2c0,0.3,0,0.7-0.4,0.7s-0.4-0.4-0.4-0.7c0-0.2,0-0.3,0-0.5
	c-0.1-0.5-0.3-0.9-0.8-0.9s-0.7,0.4-0.7,0.8c0,0.2-0.1,0.5-0.2,0.7c0,0.2-0.2,0.3-0.4,0.3c-0.2,0-0.3-0.2-0.3-0.4
	c-0.2-1.1,0.6-2.1,1.7-2.3c0.1,0,0.2,0,0.2,0L129.2,165.7z"/>
<path class="st12" d="M185.5,152c2.5,0,2.9-0.4,3-2.9c0-0.4,0.1-0.8,0.4-1.1c0.5-0.5,0.7-1.1,0.6-1.8c-0.5-1.9,0.8-3.7,0.2-5.6
	c-0.1-0.4,0.3-0.8,0.6-1.1c0,1.1,0.1,2.2,0,3.2c-0.1,0.9,0.2,1.2,1.1,1.2c2.1,0,4.2,0,6.3-0.3c0.2,2.6,0.3,5.3,0.2,7.9
	c-2.3,0-4.6,0-6.9,0c-0.7,0-1,0.1-1,0.9c0.1,3.3-0.4,6.6-0.2,9.9l0,0c-2.3-0.5-4.6-0.1-7-0.2c0-0.3,0.1-0.5,0.2-0.8
	C183.8,158.2,184.6,155.1,185.5,152z"/>
<path class="st11" d="M188.8,197.6c-0.1-3.2,0.3-6.4,0.3-9.5h8.9c0.1,4-0.2,8.1-0.5,12.1l-0.7-0.1l-6.6-2
	C189.6,197.9,189.2,197.8,188.8,197.6z M196.3,195.9c0.5,0,0.9-0.4,0.9-0.9c0,0,0-0.1,0-0.1c0-0.6-0.5-1.1-1.1-1.1c0,0,0,0,0,0
	c-0.6,0-1.1,0.5-1.2,1.1c0,0,0,0,0,0.1C194.8,195.7,195.3,196,196.3,195.9L196.3,195.9z"/>
<path class="st11" d="M189.7,162.4c-0.2-3.3,0.3-6.6,0.2-9.9c0-0.8,0.3-0.9,1-0.9c2.3,0,4.6,0,6.9,0c0,3.6,0,7.2,0,10.8L189.7,162.4
	z"/>
<path class="st11" d="M197.9,170.3c0.2,2.7,0.3,5.4,0.2,8.1c0,0.4,0,0.9-0.2,1.3h-8.6c-0.2-3.1,0.3-6.2,0.2-9.4L197.9,170.3
	L197.9,170.3z"/>
<path class="st11" d="M197.6,143.7c-2.1,0.2-4.2,0.3-6.3,0.3c-0.9,0-1.2-0.3-1.1-1.2c0.1-1.1,0-2.1,0-3.2c0.1-0.8,0.7-1.5,0.2-2.3
	c0-1,0.1-2.1,0-3.1s0.4-1.5,1.4-1.5c1.9,0.1,3.8,0,5.8,0L197.6,143.7z"/>
<path class="st12" d="M189.2,179.6h8.6c0,2.8,0,5.6,0,8.4H189l0,0C188.9,185.2,189.4,182.4,189.2,179.6z"/>
<path class="st12" d="M197.9,170.3h-8.4c-0.1-2.6,0.4-5.3,0.2-7.9l0,0h8.1C197.9,165,197.9,167.6,197.9,170.3z"/>
<path class="st10" d="M196.7,200l0.7,0.1c0.5,0.7,0.9,0.4,0.9-0.3s0.1-1.6,0.1-2.4c0.6,0.1,0.9,0.7,1.3,1s0.6,0.7,1.1,0.3l0.4-0.1
	c-0.3,4-0.1,8.1-0.7,12.1c-0.1,1.1-1.1,1.9-2.2,1.8c0,0-0.1,0-0.1,0c-0.5-0.1-0.6-0.3-0.6-0.7c-0.1-1.7-0.3-3.4-0.5-5.1
	C197,204.5,196.9,202.2,196.7,200z"/>
<path class="st11" d="M200.8,132.6c0,3.7,0,7.4,0,11h-2.1c-0.1-3.7-0.1-7.3-0.2-11H200.8z"/>
<path class="st11" d="M198.9,162.6c-0.5-3.7-0.1-7.3-0.2-11h2.1l0,0c0,3.7,0,7.4,0,11H198.9L198.9,162.6z"/>
<path class="st11" d="M200.8,198.7c-0.5,0.4-0.8,0-1.1-0.3s-0.7-0.9-1.3-1c0.2-2.7,0.3-5.4,0.2-8.1c0-0.4-0.1-0.9,0.2-1.2h1.9
	C200.8,191.6,200.8,195.1,200.8,198.7z"/>
<path class="st11" d="M198.9,179.6v-9.3h1.9c0,3.1,0,6.2,0,9.4L198.9,179.6L198.9,179.6z"/>
<path class="st12" d="M200.8,151.6h-2.1c0-2.6,0-5.3,0-7.9h2.1C200.8,146.3,200.8,148.9,200.8,151.6z"/>
<path class="st12" d="M198.9,179.6h1.9c0,2.8,0,5.6,0,8.4l0,0h-1.9C198.8,185.2,198.8,182.4,198.9,179.6z"/>
<path class="st12" d="M200.8,170.3h-1.9v-7.7h1.7c0.2,0.4,0.3,0.9,0.2,1.4C200.8,166.1,200.8,168.2,200.8,170.3z"/>
<path class="st14" d="M185.5,152c-0.9,3.1-1.7,6.2-2.6,9.3c-0.1,0.3-0.1,0.5-0.2,0.8c-0.9,2.7-1.7,5.4-2.4,8.2
	c-1,3.1-1.9,6.2-2.6,9.4c-0.5,0.8-0.4,1.8-0.9,2.6c0.1-1.3-0.2-2.7,0.2-4c0.3-1.5,0.6-3,0.9-4.5c0.8-3.9,1.5-7.8,2.3-11.8
	c0.8-3.4,1.5-6.8,2.1-10.3C183.3,151.6,184.4,151.7,185.5,152z"/>
<path class="st11" d="M182.2,151.6c-0.6,3.4-1.3,6.9-2.1,10.3h-3.3c0-1-0.1-2.1-0.1-3.1l0.1-0.2l0.2-0.3c0.8-2.1,1.9-4.1,3-6.1
	C180.5,151.2,181.4,151.7,182.2,151.6z"/>
<path class="st12" d="M177,158.3l-0.2,0.3L177,158.3z"/>
<path class="st11" d="M214.7,170.3l1.9,7c0,0.8,0,1.6-0.1,2.4h-7.4l-0.2-9.4L214.7,170.3z"/>
<path class="st12" d="M215.1,162.9h1.5v6.3c0,0.2,0,0.5-0.2,0.6C216,167.5,215.5,165.2,215.1,162.9z"/>
<path class="st12" d="M200.8,198.7c0-3.6,0-7.1,0-10.7l0,0c2.9-0.2,5.8-0.3,8.6-0.2l0,0c-0.1,2.1,0,4.2,0.3,6.3
	c-1.4,1-3.1,1.4-4.4,2.5l0,0c-0.3-0.1-0.6,0-0.7,0.2l0,0c-0.1,0-0.2,0-0.2,0c-1.1,0.5-2.1,1-3.1,1.7L200.8,198.7z"/>
<path class="st10" d="M187.1,197.4c0.3-0.1,0.6,0,0.9,0.2C187.6,197.6,187.3,197.7,187.1,197.4z"/>
<path class="st10" d="M204.6,196.9c0.2-0.2,0.5-0.3,0.7-0.2C205.2,197,204.9,196.9,204.6,196.9z"/>
<path class="st10" d="M204.4,196.9c0.1,0,0.2,0,0.2,0C204.6,197,204.5,197.1,204.4,196.9z"/>
<path class="st13" d="M209.4,187.8c-2.9,0-5.8,0-8.6,0.2c0-2.8,0-5.6,0-8.4h8.4C209.4,182.4,209.5,185.1,209.4,187.8z"/>
<path class="st12" d="M176.8,161.9h3.3c-0.7,3.9-1.5,7.9-2.3,11.8c-0.3,1.5-0.6,3-0.9,4.5c-0.1-0.2-0.2-0.3-0.2-0.5
	C176.8,172.4,176.8,167.1,176.8,161.9z"/>
<path class="st13" d="M189.2,179.6c0.1,2.8-0.4,5.6-0.2,8.4c-2.3,0.5-4.6,0.2-6.9,0.2v-8.6H189.2z"/>
<path class="st11" d="M177.7,179.6c0.7-3.2,1.7-6.3,2.6-9.4h1.7v9.4L177.7,179.6L177.7,179.6z"/>
<path class="st12" d="M214.7,170.3h-5.8c0-2.5,0-5-0.2-7.4h4C213.4,165.3,214.1,167.8,214.7,170.3z"/>
<path class="st11" d="M212.7,162.8h-4c-0.1-3.8-0.2-7.5-0.2-11.3l1.2-0.2C210.8,155.2,211.8,159,212.7,162.8z"/>
<path class="st12" d="M208.4,151.6c0.1,3.8,0.2,7.5,0.2,11.3l0,0c-2.6-0.2-5.3-0.3-7.9-0.2c0-3.7,0-7.4,0-11L208.4,151.6z"/>
<path class="st0" d="M311.3,260.5c-0.3,0.6-0.6,1.2-1,1.9c-0.5,1-0.7,2.5-1.7,2.7s-1.9-0.8-2.9-1.2c-1.1-0.6-2.3-1.2-3.4-1.7
	c-0.6-0.3-0.9-0.6-0.5-1.3c0.7-1.2,1.3-2.5,1.9-3.8c0.2-0.5,0.5-0.6,1-0.3c2,1,3.9,2,5.9,3C311,260,311.3,260,311.3,260.5z"/>
<path class="st6" d="M313.6,250.4c0.1,2.6,0.1,2.5-2.5,2.6c-1.4,0-2.8,0.1-4.2,0.2c-0.8,0.1-1.2-0.1-1.3-1c-0.1-1.3-0.1-2.6-0.2-3.8
	c0-0.6,0.2-0.8,0.8-0.9c2,0,4-0.1,6-0.3c1-0.1,1.3,0.4,1.3,1.2C313.7,249.1,313.6,249.7,313.6,250.4z"/>
<path class="st8" d="M112.7,167.9c0-1.1-0.2-2.1-1.6-2.2c-0.2,0-0.5,0-0.4-0.2c0-0.2,0.1-0.4,0.3-0.5c1-0.7,2.4-0.6,3.3,0.3
	c2.5,2.6,2.7,8.2,0.2,10.9c-0.9,1.2-2.6,1.4-3.8,0.5c-0.2-0.2-0.5-0.4-0.6-0.7c-1.8-2.3-1.9-7.3-0.3-9.6c0.1-0.1,0.2-0.1,0.5-0.4
	c-0.5,0.9-0.7,2-0.7,3c0.2,1.6,1,2.6,2.5,2c0.6,0.1,0.9-0.2,1.1-0.7C113.5,169.4,113.3,168.5,112.7,167.9z"/>
<path class="st3" d="M112.7,167.9c0.6,0.6,0.7,1.5,0.4,2.3c-0.2,0.5-0.5,0.8-1.1,0.7C111.1,169.4,111.3,168.2,112.7,167.9z"/>
<path class="st13" d="M182.1,170.3h-1.7c0.7-2.8,1.4-5.5,2.4-8.2c2.3,0.1,4.7-0.2,7,0.2c0.2,2.6-0.3,5.3-0.2,7.9H182.1L182.1,170.3z
	"/>
<path class="st13" d="M196.3,196c-1,0-1.5-0.2-1.5-1c0-0.6,0.5-1.1,1.1-1.1c0,0,0,0,0.1,0c0.6,0,1.1,0.5,1.1,1.1c0,0,0,0,0,0
	C197.2,195.5,196.8,195.9,196.3,196C196.3,196,196.3,196,196.3,196z"/>
<path class="st12" d="M182.1,170.3h7.4c0,3.1-0.4,6.2-0.2,9.4h-7.2L182.1,170.3z"/>
<path class="st13" d="M200.8,162.6c2.6-0.1,5.3,0,7.9,0.2c0.2,2.5,0.3,5,0.2,7.4h-8.1c0-2.1,0-4.2,0-6.3c0.1-0.5,0-1-0.2-1.4
	L200.8,162.6z"/>
<path class="st12" d="M200.8,170.3h8.1l0.2,9.4h-8.4C200.8,176.5,200.8,173.4,200.8,170.3z"/>
</svg>
